<svg width="512" height="512" viewBox="0 0 512 512" fill="none" xmlns="http://www.w3.org/2000/svg">
<path d="M31.7216 369V142.091H121.244C138.455 142.091 153.116 145.378 165.23 151.952C177.344 158.452 186.577 167.5 192.929 179.097C199.355 190.619 202.568 203.915 202.568 218.983C202.568 234.051 199.318 247.347 192.818 258.869C186.318 270.392 176.901 279.366 164.565 285.793C152.304 292.219 137.457 295.432 120.026 295.432H62.9659V256.986H112.27C121.503 256.986 129.111 255.398 135.094 252.222C141.151 248.972 145.656 244.503 148.611 238.815C151.639 233.054 153.153 226.443 153.153 218.983C153.153 211.449 151.639 204.875 148.611 199.261C145.656 193.574 141.151 189.179 135.094 186.077C129.037 182.901 121.355 181.312 112.048 181.312H79.696V369H31.7216ZM233.729 142.091H292.894L355.383 294.545H358.042L420.531 142.091H479.695V369H433.161V221.31H431.278L372.556 367.892H340.869L282.147 220.756H280.263V369H233.729V142.091Z" fill="#00D0FF"/>
<rect x="32.5856" y="388.717" width="446.829" height="26.7791" rx="13.3896" fill="#00D0FF"/>
</svg>
