<svg width="32" height="32" viewBox="0 0 32 32" fill="none" xmlns="http://www.w3.org/2000/svg">
<g clip-path="url(#clip0_22_96)">
<rect width="32" height="32" rx="3" fill="#2898FF"/>
<path d="M4.51136 21.0461V9.40972H9.10227C9.98485 9.40972 10.7367 9.57828 11.358 9.9154C11.9792 10.2487 12.4527 10.7127 12.7784 11.3074C13.108 11.8984 13.2727 12.5802 13.2727 13.3529C13.2727 14.1256 13.1061 14.8074 12.7727 15.3984C12.4394 15.9893 11.9564 16.4495 11.3239 16.779C10.6951 17.1086 9.93371 17.2734 9.03977 17.2734H6.11364V15.3018H8.64205C9.11553 15.3018 9.50568 15.2203 9.8125 15.0574C10.1231 14.8908 10.3542 14.6616 10.5057 14.3699C10.661 14.0745 10.7386 13.7355 10.7386 13.3529C10.7386 12.9665 10.661 12.6294 10.5057 12.3415C10.3542 12.0499 10.1231 11.8245 9.8125 11.6654C9.50189 11.5025 9.10795 11.4211 8.63068 11.4211H6.97159V21.0461H4.51136ZM14.8707 9.40972H17.9048L21.1094 17.2279H21.2457L24.4503 9.40972H27.4844V21.0461H25.098V13.4722H25.0014L21.9901 20.9893H20.3651L17.3537 13.4438H17.2571V21.0461H14.8707V9.40972Z" fill="black"/>
<path d="M4.51136 12.4539V0.817554H9.10227C9.98485 0.817554 10.7367 0.986115 11.358 1.32324C11.9792 1.65657 12.4527 2.12058 12.7784 2.71528C13.108 3.30619 13.2727 3.98801 13.2727 4.76074C13.2727 5.53346 13.1061 6.21528 12.7727 6.80619C12.4394 7.3971 11.9564 7.85733 11.3239 8.18687C10.6951 8.51642 9.93371 8.68119 9.03977 8.68119H6.11364V6.7096H8.64205C9.11553 6.7096 9.50568 6.62816 9.8125 6.46528C10.1231 6.29862 10.3542 6.06945 10.5057 5.77778C10.661 5.48233 10.7386 5.14331 10.7386 4.76074C10.7386 4.37437 10.661 4.03725 10.5057 3.74937C10.3542 3.45771 10.1231 3.23233 9.8125 3.07324C9.50189 2.91036 9.10795 2.82892 8.63068 2.82892H6.97159V12.4539H4.51136ZM14.8707 0.817554H17.9048L21.1094 8.63574H21.2457L24.4503 0.817554H27.4844V12.4539H25.098V4.88005H25.0014L21.9901 12.3971H20.3651L17.3537 4.85165H17.2571V12.4539H14.8707V0.817554Z" fill="white"/>
<path d="M4.51136 30.5461V18.9097H9.10227C9.98485 18.9097 10.7367 19.0783 11.358 19.4154C11.9792 19.7487 12.4527 20.2127 12.7784 20.8074C13.108 21.3984 13.2727 22.0802 13.2727 22.8529C13.2727 23.6256 13.1061 24.3074 12.7727 24.8984C12.4394 25.4893 11.9564 25.9495 11.3239 26.279C10.6951 26.6086 9.93371 26.7734 9.03977 26.7734H6.11364V24.8018H8.64205C9.11553 24.8018 9.50568 24.7203 9.8125 24.5574C10.1231 24.3908 10.3542 24.1616 10.5057 23.8699C10.661 23.5745 10.7386 23.2355 10.7386 22.8529C10.7386 22.4665 10.661 22.1294 10.5057 21.8415C10.3542 21.5499 10.1231 21.3245 9.8125 21.1654C9.50189 21.0025 9.10795 20.9211 8.63068 20.9211H6.97159V30.5461H4.51136ZM14.8707 18.9097H17.9048L21.1094 26.7279H21.2457L24.4503 18.9097H27.4844V30.5461H25.098V22.9722H25.0014L21.9901 30.4893H20.3651L17.3537 22.9438H17.2571V30.5461H14.8707V18.9097Z" fill="white"/>
</g>
<defs>
<clipPath id="clip0_22_96">
<rect width="32" height="32" rx="3" fill="white"/>
</clipPath>
</defs>
</svg>
