<svg width="1920" height="1080" viewBox="0 0 1920 1080" fill="none" xmlns="http://www.w3.org/2000/svg">
<g clip-path="url(#clip0_57_95)">
<rect width="1920" height="1080" fill="#3E3E3E"/>
<rect x="912.19" y="-133.367" width="466.909" height="1356.5" fill="#919191"/>
<rect x="1379.1" y="962.764" width="48.0077" height="1379.1" transform="rotate(90 1379.1 962.764)" fill="#909090"/>
<path d="M1488.83 77.7001H698.606C664.133 77.7001 606.462 84.6441 606.462 162.275C606.462 239.906 606.462 788.723 606.462 1053.43" stroke="black" stroke-width="10" stroke-linecap="round"/>
<circle cx="1486.79" cy="77.0587" r="12.9625" fill="black" stroke="#3E3E3E" stroke-width="4"/>
<circle cx="1486.79" cy="77.0587" r="7.74475" fill="#3E3E3E"/>
<circle cx="846.766" cy="77.0587" r="12.9625" fill="black" stroke="#3E3E3E" stroke-width="4"/>
<circle cx="706.557" cy="77.0587" r="12.9625" fill="black" stroke="#3E3E3E" stroke-width="4"/>
<circle cx="605.963" cy="156.963" r="12.9625" fill="black" stroke="#3E3E3E" stroke-width="4"/>
<circle cx="605.963" cy="202.888" r="12.9625" fill="black" stroke="#3E3E3E" stroke-width="4"/>
<circle cx="605.963" cy="248.813" r="12.9625" fill="black" stroke="#3E3E3E" stroke-width="4"/>
<circle cx="605.963" cy="294.738" r="12.9625" fill="black" stroke="#3E3E3E" stroke-width="4"/>
<circle cx="605.963" cy="340.663" r="12.9625" fill="black" stroke="#3E3E3E" stroke-width="4"/>
<circle cx="605.963" cy="386.588" r="12.9625" fill="black" stroke="#3E3E3E" stroke-width="4"/>
<circle cx="605.963" cy="432.513" r="12.9625" fill="black" stroke="#3E3E3E" stroke-width="4"/>
<circle cx="605.963" cy="478.438" r="12.9625" fill="black" stroke="#3E3E3E" stroke-width="4"/>
<circle cx="605.963" cy="524.363" r="12.9625" fill="black" stroke="#3E3E3E" stroke-width="4"/>
<circle cx="605.963" cy="570.288" r="12.9625" fill="black" stroke="#3E3E3E" stroke-width="4"/>
<circle cx="605.963" cy="616.213" r="12.9625" fill="black" stroke="#3E3E3E" stroke-width="4"/>
<circle cx="605.963" cy="662.138" r="12.9625" fill="black" stroke="#3E3E3E" stroke-width="4"/>
<circle cx="605.963" cy="708.063" r="12.9625" fill="black" stroke="#3E3E3E" stroke-width="4"/>
<circle cx="605.963" cy="753.988" r="12.9625" fill="black" stroke="#3E3E3E" stroke-width="4"/>
<circle cx="605.963" cy="799.913" r="12.9625" fill="black" stroke="#3E3E3E" stroke-width="4"/>
<circle cx="605.963" cy="845.838" r="12.9625" fill="black" stroke="#3E3E3E" stroke-width="4"/>
<circle cx="605.963" cy="891.763" r="12.9625" fill="black" stroke="#3E3E3E" stroke-width="4"/>
<circle cx="605.963" cy="937.688" r="12.9625" fill="black" stroke="#3E3E3E" stroke-width="4"/>
<circle cx="605.557" cy="1053.43" r="12.9625" fill="black" stroke="#3E3E3E" stroke-width="4"/>
<circle cx="605.557" cy="1053.43" r="8.02151" fill="#3E3E3E"/>
</g>
<defs>
<clipPath id="clip0_57_95">
<rect width="1920" height="1080" fill="white"/>
</clipPath>
</defs>
</svg>
