<svg xmlns="http://www.w3.org/2000/svg" width="224.08mm" height="421.79mm" viewBox="0 0 635.19 1195.63"><defs><style>.a,.g{fill:#fff;}.b,.d{fill:#edf2f5;}.c,.e,.f,.i,.m,.o{fill:none;}.c{stroke:#edf2f5;}.c,.e,.f,.i,.m{stroke-linejoin:round;}.c,.i{stroke-width:3px;}.d{fill-rule:evenodd;}.e,.i,.m{stroke:#fff;}.e,.f,.i,.m{stroke-linecap:round;}.e{stroke-width:10px;}.f,.o{stroke:#c00;}.f{stroke-width:7px;}.g,.k,.l{opacity:0;}.h,.k{isolation:isolate;}.j{fill:#666;}.m{stroke-width:5px;}.n{fill:#595757;}.o{stroke-miterlimit:10;stroke-width:9px;}</style></defs><title>太原地铁</title><rect class="a" x="-13.44" y="-16.75" width="658.66" height="1232.39"/><polyline class="b" points="188.05 -2.47 188.69 1.23 190.91 5.77 190.91 9.27 192.9 13.39 198.34 23.7 203.12 35.02 209.51 51.93 210.5 56.84 211.21 63.8 212.55 65.98 214.44 72.07 218.35 73.81 220.56 78.25 221.67 86.13 221.12 99.51 221.4 106.96 222.94 113.78 228.02 121.87 231.82 125.83 239.28 128.53 241.66 131.86 244.83 133.13 247.37 138.05 251.65 145.24 257.36 150.1 261.32 155.81 265.13 164.21 269.57 165.96 270.52 168.66 270.05 172.94 272.11 186.1 271.79 214.81 268.46 266.83 264.81 319.96 263.7 350.25 263.23 403.54 264.26 414.64 267.03 425.79 274.01 447.16 285.59 480.14 289.87 499.18 292.73 517.89 292.73 531.85 291.3 549.29 286.06 582.76 283.21 610.04 280.83 631.76 280.99 645.25 282.02 672.21 280.91 688.54 278.13 701.39 271.16 721.27 261.64 748.49 258.63 763.4 257.2 776.88 256.72 786.88 257.91 796.71 266.4 818.12 254.03 823.83 245.62 802.26 244.19 791.79 245.78 763.09 248.79 745.8 257.91 713.92 265.67 688.43 267.12 678.61 267.12 671.38 265.91 664.49 265.43 652.26 266.4 631.94 267.84 617.13 270.08 595.7 274.04 566.84 278.17 536.11 277.83 520.51 276.28 505.18 271.8 485.03 262.5 456.62 263.74 452.48 257.68 433.88 254.4 421.31 252.77 412.01 251.82 385.83 251.82 360.17 253.71 319.35 256.99 266.31 260.06 229.8 260.78 191.74 259.34 183.64 258.02 181.06 254.5 181.06 252.85 171.59 250.27 167.31 248.2 157.98 244.41 151.26 238.56 144.37 227.88 130.19 220.82 116.44 217.48 107.6 214.94 101.14 214.44 95.27 215.45 95.85 218.21 89.47 218.5 82.8 216.47 80.48 212.41 81.28 211.68 85.84 213.13 93.09 211.97 92.13 209.03 83.52 207.98 79.03 210.09 75.11 208.93 67.43 207.04 64.53 201.68 64.24 199.35 63.37 197.32 60.18 195.08 51.18 194.86 45.67 195.29 39.87 190.51 36.83 188.62 33.2 183.98 21.89 182.1 14.2 181.52 4.34 178.47 -1.89"/><polyline class="c" points="259.3 817.71 264.13 833.55 267.22 840.7 278.43 860.05 282.1 867.94 286.74 884.37 289.25 889.01 296.2 897.89 298.33 904.27 299.1 913.86 300.84 924.95 299.97 929.97 298.71 939.25 299.97 963.98 301.61 972.87 305.09 981.18 306.44 987.94 307.02 1009.77 308.38 1017.31 311.66 1031.03 312.24 1035.61 310.02 1041.66 306.73 1049 303.35 1058.08 297.17 1065.23 294.08 1077.79 290.02 1087.07 282.87 1102.14 274.56 1115.09 272.44 1122.04 268.96 1129.77 259.88 1145.81 246.16 1167.45 243.06 1170.86 234.95 1176.34 213.5 1191.41 202.1 1199.91"/><path class="d" d="M101.71,874.35l.09-1.23.56-2,2.13-.37,5.4-.35,3.77.07,7,.81,2.68,1.56.54,1.38-1,1.51-2,1.17-1.45,1.92L119,881.6l-.42,2.81-1.57,2-3.69,1.28-2.29-.51-2.46,0-1.25-.48-1.14-1.22-.94-2.25-.42-1.63-.79-1.44-1.14-1.89-.52-1.93Zm-7-82.43.68-.94.6-1.73,1.61.19,1.36.75,0,.38-.82.07-.53,2-1.39.45-1.2-.34ZM75.9,849.37l.42,3.24,2.08,12.33,1.44,2.45,1.59.85,1,1.14,3.08.14,2,.37,1.27.55,1.49.8.92,1.54.54,1.77-.32,2.09L91.15,878l.76,1.94v1.55l-.56,1.4-.88,1-2.52.29-2.56-.36-1.77,0-1.73.72,0,1.86.63.65-.09,1.29.39,1.7,1.81.75,1.44-.13,2.73-1.39,1.06.41,2.41,3.72,2.72.59,3.32.68,2.13.57,2.84.06,2.7,1.75.86,1.91,1.26,1.19,1.4-.33,2.69,1,5.63-1.89,1.81-.1,2.06.87,1.43.49,2-.07,3.26.45,2.15.47,1.82.44,2,1.16,2.35.9,4.65-2.22,1.59-.54,1.18.73.68,2.9.94,1.63,1,1,.87,2.25,2.06.5,3-.13,2.13,1.18.63,2.28L157,914.6l.31,2L158.7,919l1.94.81,1,.43v1.92l1.89,1.11,2.43.62,1.26-1,.73-3.5,1.1-2.51-1.9-1.25-7.24-3.28-1-1.55.77-2.15,1.6-3.59,2.84-1.18,1.8-.12.52-3.09,2.09-.71,1.05-.5,0-5-.27-3,.5-2.86-.61-3.54-1.16-1.89L166.15,882l-2.57-1-15.22-2.31-.78.61.56,1.82L147.8,883l1.18.72.69,1.31-.12,1.12-1.63.77-1.35,1.28-.6,2.42,0,3.36-.94,2.44L144,897.54h-1.81l-1.45-1.07-2.34-.13-1.73.27-2-.46-3.62-2.2-3-.72-2.1-1-1.52-1.67-1.72-1.47-.3-1.46-.24-3.18,1.6-3.33,3.63-3.81,6.29-5.72,2.94-.42,2.07,0,2.5.91,2.24,1.34,2.27,1.53,22.48,4.31,1.73.13,3.16-.85,1.54-.95,1.84-2.24.46-.93.3-.64.35-1.54v-1.93l-.93-8.22-1.43-6.13L173,848.36l-2.66-7.84-3.75-10.12-2.2-7.18-.75-4.06-.26-3.14v-3.69l.32-3.27,2-12.22.69-2.45,7.47-24.87.35-1.91-.19-1.94-.45-1.59-1.15-1.65-2.69-2.25-2.56-.63-2.24-.3-1.11,1-1.22.56-3.4-.29-2.08-.27-1.47-1.39-1.29-1.38-2-1.22-2.54-1-1.25-1.53-.68-2-1.28-.91-2.6.53-2.1-.43-1.05-.9.05-1,.58-.79-.53-1.74-1.4-.75-1.73.45L137,747.3l.15.81,1.95.63.47.63-.41.7-2.58-.79-2.05-.72-2.5-.95-1.74-.56-.24-1.22-.78-.94-2.3-.09-1.67.84-.7,1.36-2.31.1-1-1.35.08-1.7-.43-.65-1.13-.65-.19-.89-1.15-2-1.24-.48-1.6-.21-1.72.55-.52,1.7-1,.81-.48,1.16.89,1.59,1.21.4.9,1.48-.33,1.43.72,1.66-.11,2.46-2.4,3.57-1.74.78-2.37.51-3.07-.24-1.14.27-.44,1.42.46,1.64,2.09.59,1.56-.31-.28,1.47-7.29,11.24L100,775.6l-2.39,3.88-2.48,3.21-.88.73-2.81,8.43.48,1.35,1.38.84L96,795.41l-.25.91L94.44,796l-1.64-.93-1.21-.41-.73.21L90.28,797l0,2,.34,1.26,1.66,1.37,3.79.61,3.9-.44,5.37-1.33,4.33-1.79,2.7-2.27.36-.6.85-.57,1,0,.79.84-.24,1.23-1.36,1-5.5,3.27-5.93,2.18-9,2.35-1.59.51-1.06,1.84-1.54,1.21-.84.36.31,1.07-2.22,5.31-3.23,2.7-2.53,1.18-3.08.65-.49.83.24.5.52.41,1.07.27,1,.39L81,824l.65.75.28.61.09.69-.13.79-.46.68-.82.52-1.09.21-1.79.25L77,828.4l-.33.28,0,.26-.06.27v.7l.53,2.66.16,1.61.16,1.39,0,1.58-.09,1.55-.09,2.13,0,3.27-.5,2-.46,1.81Z"/><polyline class="e" points="370.03 1155.01 381.41 1129.51 388.87 1109.89 391.42 1102.05 392.98 1089.69 395.63 1026.33 396.12 1007.89 395.14 996.9 393.52 984.14 387.17 950.85 384.9 941.01 381.42 929.66 379.75 925.12 378.94 919.07 378.94 904.85 378.94 898.79 378.24 892.59 373.25 875.64 370.52 867.62 368.7 857.63 364.69 817.23 363.56 799.83 363.86 778.8 365.53 735.52 366.28 661.22 366.28 615.38 366.28 576.18 366.28 531.24 364.47 468.75 363.71 427.74 362.95 402.47 362.65 394.6 361.59 389.46 359.48 382.19 356.9 367.37 356.45 344.67 357.36 327.57 361.59 281.72 362.8 269.76 364.77 260.38 365.68 255.69 366.44 245.86 366.89 201.52 367.64 143.26 367.48 124.33 367.81 117.31 370.32 107.61 371.49 99.75 371.16 36.38"/><polyline class="f" points="370.03 1155.01 381.41 1129.51 388.87 1109.89 391.42 1102.05 392.98 1089.69 395.63 1026.33 396.12 1007.89 395.14 996.9 393.52 984.14 387.17 950.85 384.9 941.01 381.42 929.66 379.75 925.12 378.94 919.07 378.94 904.85 378.94 898.79 378.24 892.59 373.25 875.64 370.52 867.62 368.7 857.63 364.69 817.23 363.56 799.83 363.86 778.8 365.53 735.52 366.28 661.22 366.28 615.38 366.28 576.18 366.28 531.24 364.47 468.75 363.71 427.74 362.95 402.47 362.65 394.6 361.59 389.46 359.48 382.19 356.9 367.37 356.45 344.67 357.36 327.57 361.59 281.72 362.8 269.76 364.77 260.38 365.68 255.69 366.44 245.86 366.89 201.52 367.64 143.26 367.48 124.33 367.81 117.31 370.32 107.61 371.49 99.75 371.16 36.38"/><path class="a" d="M374.08,36.33a2.84,2.84,0,1,1-2.88-2.78A2.84,2.84,0,0,1,374.08,36.33Z"/><path class="a" d="M374.08,89.24a2.84,2.84,0,1,1-2.88-2.79A2.83,2.83,0,0,1,374.08,89.24Z"/><path class="a" d="M370.48,133.34a2.84,2.84,0,1,1-2.88-2.78A2.84,2.84,0,0,1,370.48,133.34Z"/><path class="a" d="M369.23,234.52a2.84,2.84,0,1,1-2.88-2.78A2.84,2.84,0,0,1,369.23,234.52Z"/><path class="a" d="M370,185.57a2.84,2.84,0,1,1-2.88-2.78A2.83,2.83,0,0,1,370,185.57Z"/><path class="a" d="M362.29,306a2.84,2.84,0,1,1-2.88-2.78A2.84,2.84,0,0,1,362.29,306Z"/><path class="a" d="M365.13,272.37a2.84,2.84,0,1,1-2.89-2.79A2.83,2.83,0,0,1,365.13,272.37Z"/><path class="a" d="M359.46,344.78a2.84,2.84,0,1,1-2.89-2.79A2.84,2.84,0,0,1,359.46,344.78Z"/><path class="a" d="M367.13,455.73a2.84,2.84,0,1,1-2.89-2.79A2.84,2.84,0,0,1,367.13,455.73Z"/><path class="a" d="M366.1,413.9a2.84,2.84,0,1,1-2.88-2.79A2.82,2.82,0,0,1,366.1,413.9Z"/><path class="a" d="M369.23,572.48a2.84,2.84,0,1,1-2.88-2.79A2.83,2.83,0,0,1,369.23,572.48Z"/><path class="a" d="M368,494.44a2.84,2.84,0,1,1-2.88-2.79A2.83,2.83,0,0,1,368,494.44Z"/><path class="a" d="M368.48,718.38a2.84,2.84,0,1,1-2.88-2.78A2.84,2.84,0,0,1,368.48,718.38Z"/><path class="a" d="M368.76,683.2a2.84,2.84,0,1,1-2.88-2.79A2.83,2.83,0,0,1,368.76,683.2Z"/><path class="a" d="M369.4,628a2.84,2.84,0,1,1-2.89-2.78A2.84,2.84,0,0,1,369.4,628Z"/><path class="a" d="M366.94,809.56a2.83,2.83,0,1,1-2.88-2.79A2.83,2.83,0,0,1,366.94,809.56Z"/><path class="a" d="M367.51,757.79a2.84,2.84,0,1,1-2.88-2.78A2.84,2.84,0,0,1,367.51,757.79Z"/><path class="a" d="M381.78,913.81A2.84,2.84,0,1,1,378.9,911,2.83,2.83,0,0,1,381.78,913.81Z"/><path class="a" d="M370.48,847.87a2.84,2.84,0,1,1-2.88-2.78A2.84,2.84,0,0,1,370.48,847.87Z"/><path class="a" d="M398.17,1032.72a2.84,2.84,0,1,1-2.88-2.78A2.83,2.83,0,0,1,398.17,1032.72Z"/><path class="a" d="M393.32,968.92a2.84,2.84,0,1,1-2.89-2.79A2.84,2.84,0,0,1,393.32,968.92Z"/><path class="a" d="M373,1155a2.84,2.84,0,1,1-2.89-2.78A2.84,2.84,0,0,1,373,1155Z"/><path class="g" d="M394.77,1096.48a2.84,2.84,0,1,1-2.88-2.79A2.83,2.83,0,0,1,394.77,1096.48Z"/><g class="h"><path class="i" d="M386.73,34.67a8.42,8.42,0,0,1-.22,1.21h5v.84H387a7.76,7.76,0,0,0,4.74,2.93l-.47.75a8.22,8.22,0,0,1-5.09-3.61,5.26,5.26,0,0,1-1,1.66,8.55,8.55,0,0,1-4,2l-.35-.79a7.82,7.82,0,0,0,3.71-1.75,4.27,4.27,0,0,0,.81-1.18H381v-.84h4.59a8.92,8.92,0,0,0,.26-1.21Zm-2.41-3.92A8.11,8.11,0,0,1,381.8,34l-.67-.59a7,7,0,0,0,2.4-3Zm2.41-1.19v4.63h-.89V29.56Zm4.62,4-.73.52a25.21,25.21,0,0,0-2.5-3.4l.67-.42A27.86,27.86,0,0,1,391.35,33.52Z"/><path class="i" d="M402.06,32.38v4.34h-3.38V37.8h4.88v.78h-4.88v1.86h-.84V38.58H393V37.8h4.87V36.72H394.5V32.38Zm-6.25-2v-.91h.87v.91h3.19v-.91h.86v.91h2.75v.78h-2.75v.94h-.86v-.94h-3.19v.94h-.87v-.94h-2.74v-.78Zm5.44,3.81v-1h-5.94v1Zm0,.72h-5.94V36h5.94Z"/><path class="i" d="M406.3,32.61V29.47h.87v3.14h1.41v.84h-1.41v4a15.29,15.29,0,0,0,1.46-.58v.87A26,26,0,0,1,404.92,39l-.21-.87q.81-.18,1.59-.39V33.45h-1.48v-.84ZM415.44,30v.82H412.6v4.52h3.2v.83h-3.2v4.32h-.84V36.16h-3.15v-.83h3.15V30.81h-2.82V30Zm-4.66,4.56-.75.18a20.93,20.93,0,0,0-.88-3l.74-.24A24.35,24.35,0,0,1,410.78,34.55Zm4.35-2.94a16,16,0,0,1-1,3.06l-.73-.26a15.5,15.5,0,0,0,.94-3Z"/></g><path class="i" d="M383.18,43.58v3.16a1.79,1.79,0,0,1-.32,1.15,1.38,1.38,0,0,1-1.12.43,1.35,1.35,0,0,1-1-.36,1.41,1.41,0,0,1-.36-1.05v-.17h.53v.16c0,.62.28.94.84.94a.82.82,0,0,0,.69-.28,1.4,1.4,0,0,0,.2-.84V43.58Z"/><path class="i" d="M384.67,43.58v4.65h-.53V43.58Z"/><path class="i" d="M387.62,43.58l1.83,4.65h-.58l-.49-1.3h-2.14l-.49,1.3h-.57L387,43.58Zm.59,2.9-.88-2.32h0l-.89,2.32Z"/><path class="i" d="M390.48,43.58l2.62,3.78h0V43.58h.53v4.65h-.54l-2.64-3.82h0v3.82h-.53V43.58Z"/><path class="i" d="M397.89,43.9a1.7,1.7,0,0,1,.63,1.11H398a1.16,1.16,0,0,0-.49-.78,1.54,1.54,0,0,0-.92-.26,1.5,1.5,0,0,0-1.25.56,2.2,2.2,0,0,0-.41,1.4,2.13,2.13,0,0,0,.4,1.37,1.5,1.5,0,0,0,1.24.54,1.46,1.46,0,0,0,.94-.29,1.5,1.5,0,0,0,.56-.92h.51a2,2,0,0,1-.73,1.27,2,2,0,0,1-1.28.42,2,2,0,0,1-1.65-.72,2.52,2.52,0,0,1-.53-1.67,2.6,2.6,0,0,1,.54-1.7,2,2,0,0,1,1.66-.74A2.06,2.06,0,0,1,397.89,43.9Z"/><path class="i" d="M401.3,43.58l1.83,4.65h-.58l-.5-1.3h-2.13l-.49,1.3h-.58l1.83-4.65Zm.58,2.9L401,44.16h0l-.89,2.32Z"/><path class="i" d="M407.26,44.19a2.83,2.83,0,0,1,0,3.43,2.28,2.28,0,0,1-3.29,0,2.85,2.85,0,0,1,0-3.42,2.27,2.27,0,0,1,3.29,0Zm-2.9.33a2.46,2.46,0,0,0,0,2.78,1.54,1.54,0,0,0,1.25.54,1.57,1.57,0,0,0,1.26-.53,2.17,2.17,0,0,0,.43-1.4,2.2,2.2,0,0,0-.43-1.41,1.54,1.54,0,0,0-1.25-.53A1.55,1.55,0,0,0,404.36,44.52Z"/><path class="i" d="M410.48,43.58c1.06,0,1.6.46,1.6,1.37s-.54,1.38-1.61,1.38h-1.36v1.9h-.53V43.58Zm-1.37,2.29h1.33a1.32,1.32,0,0,0,.84-.23.88.88,0,0,0,.26-.69.81.81,0,0,0-.27-.68,1.29,1.29,0,0,0-.83-.22h-1.33Z"/><path class="i" d="M413.32,43.58v4.65h-.53V43.58Z"/><path class="i" d="M414.85,43.58l2.63,3.78h0V43.58H418v4.65h-.55l-2.64-3.82h0v3.82h-.53V43.58Z"/><path class="i" d="M422.33,43.92a1.75,1.75,0,0,1,.61,1.15h-.53a1.3,1.3,0,0,0-.47-.8,1.54,1.54,0,0,0-1-.3,1.45,1.45,0,0,0-1.2.53,2.13,2.13,0,0,0-.45,1.43,2.11,2.11,0,0,0,.43,1.38,1.7,1.7,0,0,0,1.37.54,3,3,0,0,0,.73-.1,2.6,2.6,0,0,0,.58-.26V46.3H421v-.46h2v1.9a2.44,2.44,0,0,1-.82.42,3.38,3.38,0,0,1-1.07.16,2.15,2.15,0,0,1-1.71-.7,2.51,2.51,0,0,1-.57-1.69,2.55,2.55,0,0,1,.56-1.71,2,2,0,0,1,1.62-.73A2.05,2.05,0,0,1,422.33,43.92Z"/><g class="h"><path d="M386.73,34.67a8.42,8.42,0,0,1-.22,1.21h5v.84H387a7.76,7.76,0,0,0,4.74,2.93l-.47.75a8.22,8.22,0,0,1-5.09-3.61,5.26,5.26,0,0,1-1,1.66,8.55,8.55,0,0,1-4,2l-.35-.79a7.82,7.82,0,0,0,3.71-1.75,4.27,4.27,0,0,0,.81-1.18H381v-.84h4.59a8.92,8.92,0,0,0,.26-1.21Zm-2.41-3.92A8.11,8.11,0,0,1,381.8,34l-.67-.59a7,7,0,0,0,2.4-3Zm2.41-1.19v4.63h-.89V29.56Zm4.62,4-.73.52a25.21,25.21,0,0,0-2.5-3.4l.67-.42A27.86,27.86,0,0,1,391.35,33.52Z"/><path d="M402.06,32.38v4.34h-3.38V37.8h4.88v.78h-4.88v1.86h-.84V38.58H393V37.8h4.87V36.72H394.5V32.38Zm-6.25-2v-.91h.87v.91h3.19v-.91h.86v.91h2.75v.78h-2.75v.94h-.86v-.94h-3.19v.94h-.87v-.94h-2.74v-.78Zm5.44,3.81v-1h-5.94v1Zm0,.72h-5.94V36h5.94Z"/><path d="M406.3,32.61V29.47h.87v3.14h1.41v.84h-1.41v4a15.29,15.29,0,0,0,1.46-.58v.87A26,26,0,0,1,404.92,39l-.21-.87q.81-.18,1.59-.39V33.45h-1.48v-.84ZM415.44,30v.82H412.6v4.52h3.2v.83h-3.2v4.32h-.84V36.16h-3.15v-.83h3.15V30.81h-2.82V30Zm-4.66,4.56-.75.18a20.93,20.93,0,0,0-.88-3l.74-.24A24.35,24.35,0,0,1,410.78,34.55Zm4.35-2.94a16,16,0,0,1-1,3.06l-.73-.26a15.5,15.5,0,0,0,.94-3Z"/></g><path class="j" d="M383.18,43.58v3.16a1.79,1.79,0,0,1-.32,1.15,1.38,1.38,0,0,1-1.12.43,1.35,1.35,0,0,1-1-.36,1.41,1.41,0,0,1-.36-1.05v-.17h.53v.16c0,.62.28.94.84.94a.82.82,0,0,0,.69-.28,1.4,1.4,0,0,0,.2-.84V43.58Z"/><path class="j" d="M384.67,43.58v4.65h-.53V43.58Z"/><path class="j" d="M387.62,43.58l1.83,4.65h-.58l-.49-1.3h-2.14l-.49,1.3h-.57L387,43.58Zm.59,2.9-.88-2.32h0l-.89,2.32Z"/><path class="j" d="M390.48,43.58l2.62,3.78h0V43.58h.53v4.65h-.54l-2.64-3.82h0v3.82h-.53V43.58Z"/><path class="j" d="M397.89,43.9a1.7,1.7,0,0,1,.63,1.11H398a1.16,1.16,0,0,0-.49-.78,1.54,1.54,0,0,0-.92-.26,1.5,1.5,0,0,0-1.25.56,2.2,2.2,0,0,0-.41,1.4,2.13,2.13,0,0,0,.4,1.37,1.5,1.5,0,0,0,1.24.54,1.46,1.46,0,0,0,.94-.29,1.5,1.5,0,0,0,.56-.92h.51a2,2,0,0,1-.73,1.27,2,2,0,0,1-1.28.42,2,2,0,0,1-1.65-.72,2.52,2.52,0,0,1-.53-1.67,2.6,2.6,0,0,1,.54-1.7,2,2,0,0,1,1.66-.74A2.06,2.06,0,0,1,397.89,43.9Z"/><path class="j" d="M401.3,43.58l1.83,4.65h-.58l-.5-1.3h-2.13l-.49,1.3h-.58l1.83-4.65Zm.58,2.9L401,44.16h0l-.89,2.32Z"/><path class="j" d="M407.26,44.19a2.83,2.83,0,0,1,0,3.43,2.28,2.28,0,0,1-3.29,0,2.85,2.85,0,0,1,0-3.42,2.27,2.27,0,0,1,3.29,0Zm-2.9.33a2.46,2.46,0,0,0,0,2.78,1.54,1.54,0,0,0,1.25.54,1.57,1.57,0,0,0,1.26-.53,2.17,2.17,0,0,0,.43-1.4,2.2,2.2,0,0,0-.43-1.41,1.54,1.54,0,0,0-1.25-.53A1.55,1.55,0,0,0,404.36,44.52Z"/><path class="j" d="M410.48,43.58c1.06,0,1.6.46,1.6,1.37s-.54,1.38-1.61,1.38h-1.36v1.9h-.53V43.58Zm-1.37,2.29h1.33a1.32,1.32,0,0,0,.84-.23.88.88,0,0,0,.26-.69.81.81,0,0,0-.27-.68,1.29,1.29,0,0,0-.83-.22h-1.33Z"/><path class="j" d="M413.32,43.58v4.65h-.53V43.58Z"/><path class="j" d="M414.85,43.58l2.63,3.78h0V43.58H418v4.65h-.55l-2.64-3.82h0v3.82h-.53V43.58Z"/><path class="j" d="M422.33,43.92a1.75,1.75,0,0,1,.61,1.15h-.53a1.3,1.3,0,0,0-.47-.8,1.54,1.54,0,0,0-1-.3,1.45,1.45,0,0,0-1.2.53,2.13,2.13,0,0,0-.45,1.43,2.11,2.11,0,0,0,.43,1.38,1.7,1.7,0,0,0,1.37.54,3,3,0,0,0,.73-.1,2.6,2.6,0,0,0,.58-.26V46.3H421v-.46h2v1.9a2.44,2.44,0,0,1-.82.42,3.38,3.38,0,0,1-1.07.16,2.15,2.15,0,0,1-1.71-.7,2.51,2.51,0,0,1-.57-1.69,2.55,2.55,0,0,1,.56-1.71,2,2,0,0,1,1.62-.73A2.05,2.05,0,0,1,422.33,43.92Z"/><g class="h"><path d="M390.21,1152.57v.84h-3.63v1.83h2.93V1163h-.86v-.54h-7.56v.54h-.86v-7.74h2.85v-1.83h-3.57v-.84Zm-1.56,9v-1.91h-1.74a1,1,0,0,1-1.18-1.17v-2.48h-1.8v.24a4.72,4.72,0,0,1-2,4.15l-.67-.59a4,4,0,0,0,1.8-3.56v-.24h-2v5.56Zm-4.72-6.38h1.8v-1.83h-1.8Zm2.65,3.12a.49.49,0,0,0,.55.56h1.52v-2.86h-2.07Z"/><path d="M396.11,1153.6l-.25-.76a15.67,15.67,0,0,0,5.25-.76l.41.7a11,11,0,0,1-2.56.64,13,13,0,0,1-.36,1.46H402v.83h-2a5.54,5.54,0,0,0,2.39,2.35l-.37.76a6.65,6.65,0,0,1-2.83-3.11h-.91c-.1.23-.21.44-.32.65a6.56,6.56,0,0,1-.91,1.22h.58v1.08a6,6,0,0,1-2,4.39l-.67-.58a5,5,0,0,0,1.8-3.81v-.83a11,11,0,0,1-1.21,1l-.48-.64-.25.37c-.41-.69-.75-1.25-1-1.68V1163H393v-5.87a15.48,15.48,0,0,1-1.37,3.09l-.37-.92a11.81,11.81,0,0,0,1.71-4.08h-1.46v-.83H393v-2.35h.84v2.35h1.29v.83h-1.29v.71c.49.57,1,1.21,1.49,1.92l-.14.21a6.36,6.36,0,0,0,2.1-2.13,2.53,2.53,0,0,1,.12-.23h-1.93v-.83h2.28a9.46,9.46,0,0,0,.33-1.37C397.48,1153.56,396.81,1153.6,396.11,1153.6Zm4.24,4V1163h-.84v-5.46Z"/></g><path class="j" d="M379.67,1166.22l1.26,1.8,1.26-1.8h.65l-1.59,2.23,1.72,2.41h-.66l-1.38-2-1.38,2h-.66l1.71-2.41-1.58-2.23Z"/><path class="j" d="M384,1166.22v4.64h-.52v-4.64Z"/><path class="j" d="M388.68,1166.82a2.55,2.55,0,0,1,.57,1.72,2.51,2.51,0,0,1-.57,1.71l0,0c.18.24.36.48.53.74l-.35.3-.53-.74a2.21,2.21,0,0,1-1.27.36,2,2,0,0,1-1.64-.7,2.81,2.81,0,0,1,0-3.42,2.29,2.29,0,0,1,3.29,0Zm-2.9.33a2.46,2.46,0,0,0,0,2.78,1.54,1.54,0,0,0,1.25.54,1.68,1.68,0,0,0,1-.27c-.26-.33-.52-.64-.78-.91l.32-.3c.26.28.53.58.79.9a2.53,2.53,0,0,0,0-2.76,1.57,1.57,0,0,0-1.25-.53A1.53,1.53,0,0,0,385.78,1167.15Z"/><path class="j" d="M390.56,1166.22v4.64H390v-4.64Z"/><path class="j" d="M393.51,1166.22l1.83,4.64h-.58l-.49-1.3h-2.14l-.49,1.3h-.57l1.82-4.64Zm.59,2.89-.88-2.32h0l-.89,2.32Z"/><path class="j" d="M399.48,1166.82a2.55,2.55,0,0,1,.57,1.72,2.51,2.51,0,0,1-.57,1.71,2.29,2.29,0,0,1-3.3,0,2.85,2.85,0,0,1,0-3.42,2.31,2.31,0,0,1,3.3,0Zm-2.91.33a2.46,2.46,0,0,0,0,2.78,1.55,1.55,0,0,0,1.26.54,1.57,1.57,0,0,0,1.25-.53,2.11,2.11,0,0,0,.44-1.4,2.14,2.14,0,0,0-.44-1.41,1.73,1.73,0,0,0-2.51,0Z"/><g class="k"><path d="M405.41,1090.48a13.42,13.42,0,0,1-1.61,2.83v7.91h-.86v-6.85a17.69,17.69,0,0,1-1.77,1.68l-.27-.9a13.06,13.06,0,0,0,3.7-5Zm2.43,10.52a1.12,1.12,0,0,1-1.26-1.27v-3.66c-.5.29-1,.55-1.55.8l-.38-.81c.67-.31,1.32-.64,1.93-1v-4.81h.87v4.29a17,17,0,0,0,3.31-2.87l.6.68a19.94,19.94,0,0,1-3.91,3.21v4c0,.37.19.56.6.56H410a.79.79,0,0,0,.69-.3,5.87,5.87,0,0,0,.27-2.07l.8.26a6.53,6.53,0,0,1-.43,2.51,1.4,1.4,0,0,1-1.19.43Z"/><path d="M414.67,1098v-3.65h7.56V1098h-3.32v.84h4.81v.77h-4.81v1.49H418v-1.49h-4.86v-.77H418V1098Zm-.73-6.25V1091h4a7.4,7.4,0,0,0-.32-.8l.92-.14c.12.28.23.6.35.94h4.08v.76h-1.78l-.43,1.12h2.83v.74H413.33v-.74h2.87l-.45-1.12Zm7.44,3.32h-5.86v.77h5.86Zm-5.86,2.21h5.86v-.77h-5.86Zm4.32-4.41.42-1.12h-3.63l.44,1.12Z"/><path d="M435.79,1090.71v.84h-3.62v1.83h2.92v7.74h-.86v-.54h-7.56v.54h-.86v-7.74h2.85v-1.83h-3.57v-.84Zm-1.56,9.06v-1.91h-1.74a1,1,0,0,1-1.18-1.18v-2.48h-1.8v.24a4.73,4.73,0,0,1-2,4.15l-.68-.59a4,4,0,0,0,1.8-3.56v-.24h-2v5.57Zm-4.72-6.39h1.8v-1.83h-1.8Zm2.66,3.12c0,.37.17.57.55.57h1.51v-2.87h-2.06Z"/><path d="M439.74,1090.45a9.31,9.31,0,0,1-2.65,3.59l-.25-.81a8.14,8.14,0,0,0,2.16-3.12Zm.26,3.1a8.84,8.84,0,0,1-1,1.84v5.77h-.78v-4.81a9.67,9.67,0,0,1-1,1l-.25-.79a9.05,9.05,0,0,0,2.36-3.32Zm1.83,3.18v-1.19h.82v1.19h1.74v.77h-1.74v1.69c.71-.12,1.41-.26,2.09-.41v.77c-1.49.36-3.08.65-4.8.89l-.2-.83c.71-.07,1.4-.17,2.09-.28v-1.83h-1.69v-.77Zm0-4.8v-1.58h.83v1.58h1.66v.77h-1.66v1.62h1.92v-.52H448v.8h-1.14v5.4c0,.75-.32,1.12-1,1.12h-1.41l-.18-.8c.45,0,.89.06,1.31.06.27,0,.4-.2.4-.58v-5.2h-1.37v.49H440v-.77h1.87v-1.62h-1.63v-.77Zm5.92-.92v.78h-3V1091Z"/></g><g class="l"><path class="j" d="M401.44,1104.36v2h2.69v-2h.53V1109h-.53v-2.16h-2.69V1109h-.53v-4.64Z"/><path class="j" d="M406.12,1104.36v2.87a1.49,1.49,0,0,0,.31,1,1.28,1.28,0,0,0,1,.37,1.32,1.32,0,0,0,1-.37,1.54,1.54,0,0,0,.3-1v-2.87h.54v2.86a1.92,1.92,0,0,1-.47,1.39,1.88,1.88,0,0,1-1.39.48,1.84,1.84,0,0,1-1.38-.48,1.92,1.92,0,0,1-.47-1.39v-2.86Z"/><path class="j" d="M412.21,1104.36,414,1109h-.58l-.49-1.3h-2.13l-.49,1.3h-.58l1.83-4.64Zm.58,2.89-.88-2.32h0l-.89,2.32Z"/><path class="j" d="M417.77,1104.36v.44l-2.89,3.74h3.05v.46H414.2v-.43l2.89-3.75h-2.7v-.46Z"/><path class="j" d="M419.09,1104.36v2h2.68v-2h.54V1109h-.54v-2.16h-2.68V1109h-.53v-4.64Z"/><path class="j" d="M425.21,1104.36,427,1109h-.58l-.49-1.3h-2.13l-.5,1.3h-.57l1.83-4.64Zm.59,2.89-.88-2.32h0l-.89,2.32Z"/><path class="j" d="M428.07,1104.36l2.62,3.78h0v-3.78h.54V1109h-.55l-2.64-3.81h0V1109h-.53v-4.64Z"/><path class="j" d="M435.55,1104.69a1.82,1.82,0,0,1,.61,1.16h-.53a1.38,1.38,0,0,0-.47-.81,1.58,1.58,0,0,0-1-.29,1.48,1.48,0,0,0-1.2.53,2.1,2.1,0,0,0-.44,1.42,2.06,2.06,0,0,0,.43,1.39,1.71,1.71,0,0,0,1.36.54,2.48,2.48,0,0,0,.73-.11,2,2,0,0,0,.59-.26v-1.18h-1.46v-.46h2v1.9a2.58,2.58,0,0,1-.81.42,3.81,3.81,0,0,1-1.08.15,2.13,2.13,0,0,1-1.71-.7,2.46,2.46,0,0,1-.56-1.69,2.53,2.53,0,0,1,.56-1.7,2,2,0,0,1,1.61-.73A2.15,2.15,0,0,1,435.55,1104.69Z"/><path class="j" d="M437.39,1104.36l1.25,1.81,1.26-1.81h.66l-1.6,2.23,1.72,2.41H440l-1.39-2-1.38,2h-.65l1.71-2.41-1.59-2.23Z"/><path class="j" d="M441.75,1104.36V1109h-.53v-4.64Z"/><path class="j" d="M445.16,1104.36v3.16a1.79,1.79,0,0,1-.32,1.15,1.38,1.38,0,0,1-1.12.42,1.35,1.35,0,0,1-1-.35,1.43,1.43,0,0,1-.37-1.06v-.16h.54v.16c0,.62.28.94.84.94a.82.82,0,0,0,.68-.28,1.37,1.37,0,0,0,.21-.84v-3.14Z"/><path class="j" d="M446.65,1104.36V1109h-.53v-4.64Z"/><path class="j" d="M450.91,1104.36v.46h-2.75v1.56h2.6v.46h-2.6v1.7H451v.46h-3.4v-4.64Z"/></g><g class="h"><path d="M410.58,1036.57a8.31,8.31,0,0,1-1.89-.22,2.68,2.68,0,0,1-1.29-.88.67.67,0,0,0-.47-.3c-.28,0-.76.56-1.42,1.66l-.65-.59a4.66,4.66,0,0,1,1.69-1.83v-3.65h-1.7V1030h2.5v4.49a1.46,1.46,0,0,1,.3.27,2.75,2.75,0,0,0,.94.76,4.67,4.67,0,0,0,1.64.28c.64,0,1.43,0,2.38,0l1.71,0c.58,0,1,0,1.33,0l-.2.86h-2.72Zm-2.78-8.7-.61.6a13.7,13.7,0,0,0-2.07-1.91l.59-.56A15.11,15.11,0,0,1,407.8,1027.87Zm4.16.18a11.25,11.25,0,0,0,1.73-1.09h-5.33v-.73h6.49v.62a13.55,13.55,0,0,1-2.34,1.62l.19.16h2.38V1034c0,.61-.34.92-1,.92h-1l-.2-.73.95,0c.29,0,.43-.14.43-.4v-.9h-2V1035h-.81v-2.06h-2v2.1h-.81v-6.38h3a12.52,12.52,0,0,0-1.57-1l.53-.52C411.08,1027.45,411.55,1027.75,412,1028.05Zm-.52,1.3h-2v1.07h2Zm-2,2.85h2v-1.06h-2Zm4.82-2.85h-2v1.07h2Zm-2,2.85h2v-1.06h-2Z"/><path d="M422.72,1036.57a8.93,8.93,0,0,1-2-.22,2.67,2.67,0,0,1-1.32-.88.7.7,0,0,0-.49-.3c-.29,0-.78.56-1.45,1.68l-.65-.57a4.71,4.71,0,0,1,1.71-1.87v-3.62h-1.72V1030h2.55v4.51a1.78,1.78,0,0,1,.3.27,3.38,3.38,0,0,0,1,.76,5.38,5.38,0,0,0,1.71.26l2.46,0h1.61c.54,0,1,0,1.26,0l-.21.88H425Zm-3-8.72-.62.63a13.86,13.86,0,0,0-2.08-1.92l.6-.56A16.53,16.53,0,0,1,419.75,1027.85Zm3.39.63a16.94,16.94,0,0,0,.12-1.93v-.73h.87v.55a19.85,19.85,0,0,1-.12,2.11h3.06v.84h-3.19c-.06.31-.12.61-.2.9a31.25,31.25,0,0,1,3.71,3.9l-.62.61a33.27,33.27,0,0,0-3.33-3.7,7.1,7.1,0,0,1-2.75,3.69l-.53-.71a6.73,6.73,0,0,0,2.85-4.69h-2.58v-.84Z"/><path d="M431.5,1026.06a9.34,9.34,0,0,1-2.65,3.6l-.25-.82a8.14,8.14,0,0,0,2.16-3.12Zm.26,3.11a9.54,9.54,0,0,1-1,1.83v5.77H430V1032a12.2,12.2,0,0,1-1,1l-.26-.8a9,9,0,0,0,2.37-3.32Zm1.83,3.17v-1.18h.82v1.18h1.74v.77h-1.74v1.69c.71-.12,1.41-.26,2.09-.4v.76c-1.49.36-3.08.65-4.8.89l-.2-.83c.71-.07,1.4-.17,2.09-.27v-1.84h-1.7v-.77Zm0-4.79V1026h.82v1.59h1.67v.76h-1.67v1.62h1.92v-.51h3.4v.79H438.6v5.41c0,.74-.33,1.11-1,1.11h-1.42l-.18-.8q.69.06,1.32.06c.27,0,.4-.19.4-.57v-5.21h-1.37v.49h-4.66v-.77h1.87v-1.62H432v-.76Zm5.92-.93v.78h-3v-.78Z"/></g><path class="j" d="M408.11,1040v.47h-1.63v4.18H406v-4.18h-1.64V1040Z"/><path class="j" d="M412.36,1040.58a2.83,2.83,0,0,1,0,3.43,2.28,2.28,0,0,1-3.29,0,2.85,2.85,0,0,1,0-3.42,2.27,2.27,0,0,1,3.29,0Zm-2.9.33a2.46,2.46,0,0,0,0,2.78,1.54,1.54,0,0,0,1.25.54,1.57,1.57,0,0,0,1.26-.53,2.17,2.17,0,0,0,.43-1.4,2.2,2.2,0,0,0-.43-1.41,1.73,1.73,0,0,0-2.51,0Z"/><path class="j" d="M414.24,1040l2.62,3.78h0V1040h.54v4.65h-.55l-2.64-3.82h0v3.82h-.53V1040Z"/><path class="j" d="M421.72,1040.31a1.8,1.8,0,0,1,.61,1.15h-.53a1.35,1.35,0,0,0-.47-.8,1.59,1.59,0,0,0-1-.3,1.48,1.48,0,0,0-1.2.53,2.13,2.13,0,0,0-.44,1.43,2.05,2.05,0,0,0,.43,1.38,1.68,1.68,0,0,0,1.36.54,2.48,2.48,0,0,0,.73-.11,2,2,0,0,0,.59-.26v-1.18h-1.46v-.46h2v1.9a2.39,2.39,0,0,1-.81.42,3.49,3.49,0,0,1-1.08.16,2.15,2.15,0,0,1-1.71-.71,2.46,2.46,0,0,1-.56-1.68,2.55,2.55,0,0,1,.56-1.71,2,2,0,0,1,1.61-.73A2.1,2.1,0,0,1,421.72,1040.31Z"/><path class="j" d="M424.88,1040a2.09,2.09,0,0,1,1.66.64,2.46,2.46,0,0,1,.52,1.69,2.4,2.4,0,0,1-.56,1.68,2.18,2.18,0,0,1-1.67.64h-1.62V1040Zm-1.13,4.18h1a1.81,1.81,0,0,0,1.37-.48,2,2,0,0,0,.43-1.37,2,2,0,0,0-.4-1.39,1.69,1.69,0,0,0-1.34-.47h-1Z"/><path class="j" d="M429.78,1040l1.82,4.65H431l-.5-1.3H428.4l-.49,1.3h-.58l1.83-4.65Zm.58,2.9-.87-2.32h0l-.89,2.32Z"/><path class="j" d="M434.5,1040v3.16a1.79,1.79,0,0,1-.31,1.15,1.38,1.38,0,0,1-1.12.43,1.35,1.35,0,0,1-1-.36,1.42,1.42,0,0,1-.37-1v-.17h.53v.16c0,.62.28.94.85.94a.82.82,0,0,0,.68-.28,1.33,1.33,0,0,0,.21-.84V1040Z"/><path class="j" d="M436,1040v4.65h-.53V1040Z"/><path class="j" d="M440.26,1040v.47h-2.75V1042h2.6v.46h-2.6v1.7h2.86v.47H437V1040Z"/><g class="h"><path d="M407.57,966.28v.66a10.11,10.11,0,0,0,1.14,1,7.41,7.41,0,0,0,1.66-1.41l.63.54a9.26,9.26,0,0,1-1.68,1.3,12.71,12.71,0,0,0,2.53,1.26l-.43.75a11.77,11.77,0,0,1-3.85-2.55v1.93a.82.82,0,0,1-.93.92h-1.33l-.17-.78c.44,0,.83.06,1.21.06a.35.35,0,0,0,.39-.4V968.2a19.47,19.47,0,0,1-3.61,2l-.34-.78a16.89,16.89,0,0,0,3.95-2.07v-1.08h-3v-.71h3v-.94h-3.95a14.28,14.28,0,0,1-1.26,6.1l-.64-.58a13.41,13.41,0,0,0,1.06-5.68V960.6h4.58a6.64,6.64,0,0,0-.43-.76l.89-.15a9.78,9.78,0,0,1,.42.91h4.17v.77h-4v.89h3v1.66h1.18v.71h-1.18v1.65Zm-.83-2.36V963h-3v-.71h3v-.89h-3.95v2.55Zm-1.32,3.75-.41.61a8,8,0,0,0-1.64-.89l.42-.61A7.3,7.3,0,0,1,405.42,967.67Zm2.15-3.75h2.14V963h-2.14Zm0,.71v.94h2.14v-.94Z"/><path d="M423.56,964.21v.84h-4.5v4.53a1,1,0,0,1-1.1,1.11h-1.78l-.19-.84c.58,0,1.14.06,1.67.06a.48.48,0,0,0,.53-.55v-4.31h-4.87v-.84Zm-.12-.74h-.88V962h-8.25v1.5h-.87v-2.33h4.69a9.1,9.1,0,0,0-.58-1.37l.92-.14a12.61,12.61,0,0,1,.54,1.51h4.43Z"/><path d="M427.74,960a9.31,9.31,0,0,1-2.65,3.59l-.25-.81a8.14,8.14,0,0,0,2.16-3.12Zm.26,3.1a8.84,8.84,0,0,1-1,1.84v5.77h-.78v-4.81a9.67,9.67,0,0,1-1,1l-.25-.79a9.05,9.05,0,0,0,2.36-3.32Zm1.83,3.18v-1.19h.82v1.19h1.74v.77h-1.74v1.69c.71-.12,1.41-.26,2.09-.41v.77c-1.49.36-3.08.65-4.8.89l-.2-.83c.71-.07,1.4-.17,2.09-.28v-1.83h-1.69v-.77Zm0-4.8v-1.58h.83v1.58h1.66v.77h-1.66v1.62h1.92v-.52H436v.8h-1.14v5.41q0,1.11-1,1.11h-1.41l-.18-.8c.45,0,.89.06,1.31.06.27,0,.4-.2.4-.58v-5.2h-1.37v.49H428v-.77h1.87v-1.62h-1.63v-.77Zm5.92-.92v.78h-3v-.78Z"/></g><path class="j" d="M404.63,973.93l-2.09,2,2.39,2.65h-.72l-2-2.3-.73.68v1.62h-.53v-4.64h.53v2.41l2.5-2.41Z"/><path class="j" d="M407.37,973.93l1.83,4.64h-.58l-.49-1.3H406l-.49,1.3h-.57l1.82-4.64Zm.59,2.89-.88-2.32h0l-.89,2.32Z"/><path class="j" d="M410.22,973.93l2.63,3.78h0v-3.78h.53v4.64h-.54l-2.64-3.81h0v3.81h-.53v-4.64Z"/><path class="j" d="M417.71,974.26a1.87,1.87,0,0,1,.61,1.16h-.54a1.32,1.32,0,0,0-.46-.81,1.58,1.58,0,0,0-1-.29,1.46,1.46,0,0,0-1.2.53,2.1,2.1,0,0,0-.44,1.42,2.06,2.06,0,0,0,.43,1.39,1.71,1.71,0,0,0,1.36.54,2.53,2.53,0,0,0,.73-.11,1.82,1.82,0,0,0,.58-.26v-1.18h-1.45v-.46h2v1.9a2.58,2.58,0,0,1-.81.42,3.81,3.81,0,0,1-1.08.15,2.12,2.12,0,0,1-1.71-.7,2.47,2.47,0,0,1-.57-1.69,2.58,2.58,0,0,1,.56-1.7,2,2,0,0,1,1.62-.73A2.15,2.15,0,0,1,417.71,974.26Z"/><path class="j" d="M419.76,973.93l2.63,3.78h0v-3.78h.53v4.64h-.55l-2.64-3.81h0v3.81h-.53v-4.64Z"/><path class="j" d="M424.44,973.93v4.64h-.53v-4.64Z"/><path class="j" d="M426,973.93l2.63,3.78h0v-3.78h.53v4.64h-.54L426,974.76h0v3.81h-.53v-4.64Z"/><path class="j" d="M433.46,974.26a1.87,1.87,0,0,1,.61,1.16h-.54a1.32,1.32,0,0,0-.46-.81,1.58,1.58,0,0,0-1-.29,1.46,1.46,0,0,0-1.2.53,2.51,2.51,0,0,0,0,2.81,1.75,1.75,0,0,0,1.37.54,2.58,2.58,0,0,0,.73-.11,1.82,1.82,0,0,0,.58-.26v-1.18h-1.45v-.46h2v1.9a2.58,2.58,0,0,1-.81.42,3.81,3.81,0,0,1-1.08.15,2.12,2.12,0,0,1-1.71-.7,2.47,2.47,0,0,1-.57-1.69,2.58,2.58,0,0,1,.56-1.7,2,2,0,0,1,1.62-.73A2.15,2.15,0,0,1,433.46,974.26Z"/><path class="j" d="M437.38,973.93v3.16a1.79,1.79,0,0,1-.31,1.15,1.67,1.67,0,0,1-2.13.07,1.46,1.46,0,0,1-.36-1.06v-.16h.53v.16c0,.62.28.94.85.94a.82.82,0,0,0,.68-.28,1.35,1.35,0,0,0,.21-.84v-3.14Z"/><path class="j" d="M438.88,973.93v4.64h-.53v-4.64Z"/><path class="j" d="M443.14,973.93v.46h-2.76V976H443v.46h-2.6v1.7h2.87v.46h-3.4v-4.64Z"/><g class="h"><path d="M390.06,911.7v1h-.87v-7H393v-1.65h.87v1.65h3.89v6h-3.89v1.47c0,.59.27.89.79.89h2.74a1,1,0,0,0,.66-.2,3.43,3.43,0,0,0,.25-1.43l.82.28a3.72,3.72,0,0,1-.42,1.86,1.73,1.73,0,0,1-1.17.31h-3.08c-1,0-1.46-.53-1.46-1.57V911.7Zm0-5.16v1.77H393v-1.77Zm0,4.36H393v-1.8h-2.95Zm6.86-4.36h-3v1.77h3Zm0,4.36v-1.8h-3v1.8Z"/><path d="M405.45,909.22v-1.71a17.35,17.35,0,0,0,2.95-2.11h-6.74v-.81h7.92v.81a24,24,0,0,1-3.25,2.56v1.26h4.55v.84h-4.55v3.83a1,1,0,0,1-1.11,1.08h-2.05l-.23-.84c.6,0,1.24,0,1.93,0,.39,0,.58-.19.58-.55v-3.56H400.4v-.84Z"/><path d="M423,904.58v.84h-3.62v1.83h2.93V915h-.87v-.54h-7.55V915H413v-7.74h2.86v-1.83h-3.58v-.84Zm-1.56,9v-1.91h-1.74a1,1,0,0,1-1.17-1.17v-2.48h-1.8v.24a4.74,4.74,0,0,1-2,4.15l-.67-.59a4,4,0,0,0,1.8-3.56v-.24h-2v5.56Zm-4.71-6.38h1.8v-1.83h-1.8Zm2.65,3.12a.49.49,0,0,0,.55.56h1.51v-2.86h-2.06Z"/><path d="M426.94,904.31a9.17,9.17,0,0,1-2.65,3.6l-.25-.82A8,8,0,0,0,426.2,904Zm.27,3.11a9,9,0,0,1-1,1.83V915h-.78v-4.81a9.76,9.76,0,0,1-1,1l-.25-.79a8.94,8.94,0,0,0,2.36-3.33ZM429,910.6v-1.19h.83v1.19h1.74v.76h-1.74v1.69c.71-.12,1.4-.26,2.08-.4v.77c-1.48.35-3.08.64-4.79.88l-.21-.83c.71-.07,1.41-.16,2.09-.27v-1.84h-1.69v-.76Zm0-4.8v-1.58h.83v1.58h1.67v.77h-1.67v1.62h1.92v-.52h3.39v.79H434v5.41c0,.74-.32,1.12-1,1.12h-1.42l-.18-.81c.45,0,.9.06,1.32.06q.39,0,.39-.57v-5.21h-1.36V909h-4.67v-.76H429v-1.62h-1.63v-.77Zm5.93-.93v.79h-3v-.79Z"/></g><path class="j" d="M389.78,918.23a2.07,2.07,0,0,1,1.66.63,2.46,2.46,0,0,1,.52,1.69,2.4,2.4,0,0,1-.56,1.68,2.18,2.18,0,0,1-1.67.64h-1.62v-4.64Zm-1.13,4.18h1a1.84,1.84,0,0,0,1.36-.48,2,2,0,0,0,.44-1.38,2,2,0,0,0-.41-1.39,1.69,1.69,0,0,0-1.34-.47h-1Z"/><path class="j" d="M393.27,918.23v4.64h-.53v-4.64Z"/><path class="j" d="M396.22,918.23l1.83,4.64h-.58l-.5-1.3h-2.13l-.49,1.3h-.57l1.82-4.64Zm.58,2.89-.87-2.32h0l-.89,2.32Z"/><path class="j" d="M399.07,918.23,401.7,922h0v-3.77h.53v4.64h-.54l-2.64-3.82h0v3.82h-.54v-4.64Z"/><path class="j" d="M406.46,918.23v.44l-2.89,3.74h3v.46h-3.73v-.44l2.89-3.74h-2.69v-.46Z"/><path class="j" d="M407.81,918.23v4.64h-.53v-4.64Z"/><path class="j" d="M409.13,918.23l1.25,1.8,1.26-1.8h.66l-1.6,2.23,1.72,2.41h-.65l-1.39-2-1.37,2h-.66l1.71-2.41-1.59-2.23Z"/><path class="j" d="M413.49,918.23v4.64H413v-4.64Z"/><path class="j" d="M416.9,918.23v3.16a1.78,1.78,0,0,1-.32,1.14,1.35,1.35,0,0,1-1.12.43,1.32,1.32,0,0,1-1-.36,1.42,1.42,0,0,1-.37-1.05v-.16h.54v.15c0,.63.28.94.84.94a.85.85,0,0,0,.69-.27,1.44,1.44,0,0,0,.2-.84v-3.14Z"/><path class="j" d="M418.39,918.23v4.64h-.53v-4.64Z"/><path class="j" d="M422.66,918.23v.46H419.9v1.55h2.6v.46h-2.6v1.71h2.87v.46h-3.4v-4.64Z"/><g class="h"><path d="M379.12,846.81V844.7h7.49v2.11h-1l-.46.85h3.07v.71h-7.47c-.08.3-.14.57-.21.84h2.17a5,5,0,0,1-.4,2.55,1.84,1.84,0,0,1-1.37.42,5.18,5.18,0,0,1-.63,0l-.18-.69.63,0c.48,0,.79-.1.91-.27a2.85,2.85,0,0,0,.22-1.28h-1.6a5.21,5.21,0,0,1-.34.67,5.28,5.28,0,0,1-1.79,1.67l-.51-.65a5,5,0,0,0,1.59-1.38,3.07,3.07,0,0,1,.17-.31h-1.46v-.74h1.78c.08-.27.15-.56.21-.84h-2.37v-.71h3.1l-.38-.85Zm3.33-3.42v-.73H378V842h4.42v-.73h.85V842h4.43v.7H383.3v.73h3.95v.69h-8.73v-.69Zm3.35,1.94h-5.87v.83h5.87Zm-4.63,1.48.38.85h2.67l.46-.85Zm6.2,5.43h-.78v-.46h-2.36v.46h-.79v-3.15h3.93Zm-.78-1.15v-1.32h-2.36v1.32Z"/><path d="M392.43,842.42v-1.17h.87v1.17h3.14v-1.17h.88v1.17h2.77v.84h-2.77v1.14h-.88v-1.14H393.3v1.12h-.87v-1.12h-2.77v-.84Zm-2.25,3.42V845h8.94c-.06,2-.11,3.2-.15,3.58a2.12,2.12,0,0,1-.38,1.31,1.49,1.49,0,0,1-1.15.36c-.35,0-.77,0-1.27,0l-.24-.87h1.31a.88.88,0,0,0,.68-.24,2.21,2.21,0,0,0,.27-1.18c0-.33,0-1,.07-2.17h-3.79v6.36h-.88v-6.36Z"/></g><path class="j" d="M379.78,855.41v3.16a1.76,1.76,0,0,1-.32,1.14,1.35,1.35,0,0,1-1.12.43,1.32,1.32,0,0,1-1-.36,1.39,1.39,0,0,1-.37-1v-.16h.54v.15c0,.63.28.95.84.95a.82.82,0,0,0,.68-.28,1.37,1.37,0,0,0,.21-.84v-3.14Z"/><path class="j" d="M381.27,855.41v4.64h-.53v-4.64Z"/><path class="j" d="M384.22,855.41l1.83,4.64h-.58l-.49-1.3h-2.14l-.49,1.3h-.57l1.82-4.64Zm.59,2.89-.88-2.32h0L383,858.3Z"/><path class="j" d="M389,855.41v3.16a1.76,1.76,0,0,1-.32,1.14,1.35,1.35,0,0,1-1.12.43,1.32,1.32,0,0,1-1-.36,1.38,1.38,0,0,1-.36-1v-.16h.53v.15c0,.63.28.95.84.95a.84.84,0,0,0,.69-.28,1.44,1.44,0,0,0,.2-.84v-3.14Z"/><path class="j" d="M390.44,855.41v4.64h-.52v-4.64Z"/><path class="j" d="M394.71,855.41v.46H392v1.55h2.6v.47H392v1.7h2.87v.46h-3.4v-4.64Z"/><g class="h"><path d="M380.45,813.86c-.69,0-1-.38-1-1.12v-.53a11.7,11.7,0,0,1-2.05,1l-.49-.73a10.24,10.24,0,0,0,2.54-1.27V806.5h-1.5a20.76,20.76,0,0,1-.41,2.37,8.77,8.77,0,0,1-3.44,5.13l-.56-.69a8.53,8.53,0,0,0,3.13-4.48,19.72,19.72,0,0,0,.4-2.33h-3.28v-.84h3.37c.07-.82.11-1.69.11-2.63h.85c0,.94,0,1.81-.1,2.63h6.33v.84h-4.05v4a10.31,10.31,0,0,0,2.35-3.06l.77.39a11.23,11.23,0,0,1-3.12,3.78v.91c0,.35.13.53.42.53h2a.53.53,0,0,0,.48-.26,6.4,6.4,0,0,0,.24-1.91l.81.27a5.4,5.4,0,0,1-.45,2.33,1.12,1.12,0,0,1-.92.36ZM383,804.7l-.59.6a14,14,0,0,0-2.24-1.73l.57-.55A16.59,16.59,0,0,1,383,804.7Z"/><path d="M386.62,806.14v-3h.84v3h1.07V807h-1.07v3.64c.33-.17.66-.35,1-.54v.84a14.85,14.85,0,0,1-2.8,1.27l-.22-.81a11.22,11.22,0,0,0,1.2-.39v-4h-1.08v-.82Zm3.39,2a9.89,9.89,0,0,1-1.65,5.77l-.64-.56a8.83,8.83,0,0,0,1.45-5.21v-3.26h3.48c0-.58,0-1.19,0-1.82h.79c0,.65,0,1.26,0,1.82h2.69v.78h-2.67a25.88,25.88,0,0,0,.35,3.54,6.63,6.63,0,0,0,.13.67,14,14,0,0,0,1.05-3.09l.71.3a14.13,14.13,0,0,1-1.47,3.86,5.54,5.54,0,0,0,.41,1c.28.56.52.85.69.85s.31-.6.44-1.75l.72.39c-.24,1.61-.57,2.41-1,2.41s-.83-.36-1.27-1.08a5.41,5.41,0,0,1-.52-1,7.21,7.21,0,0,1-2.4,2.13l-.51-.66a7,7,0,0,0,2.61-2.38c-.13-.41-.24-.86-.34-1.33a26.74,26.74,0,0,1-.4-3.83H390v1.73h2.08a17.42,17.42,0,0,1-.26,4,1,1,0,0,1-.93.72h-.81l-.22-.7h.83c.26,0,.42-.23.49-.6a20.48,20.48,0,0,0,.12-2.64H390Zm5.69-3.69-.64.27a9.66,9.66,0,0,0-.84-1.51l.64-.25A9.85,9.85,0,0,1,395.7,804.45Z"/><path d="M401.75,803.48a13.73,13.73,0,0,1-3.51,5.75l-.68-.58a12.72,12.72,0,0,0,3.4-5.48Zm5.7,10.2-.81.36c-.18-.4-.36-.79-.54-1.15-2.11.34-4.47.58-7.09.75l-.15-.84c1-.51,2.16-2.4,3.61-5.69l.84.29a25.42,25.42,0,0,1-3.1,5.36,55,55,0,0,0,5.51-.6,24.77,24.77,0,0,0-1.45-2.37l.78-.27A25.56,25.56,0,0,1,407.45,813.68Zm1-5.13-.61.71a11.57,11.57,0,0,1-3.73-5.77l.73-.41A11.21,11.21,0,0,0,408.48,808.55Z"/><path d="M419.91,814h-.86v-.48H411V814h-.87V803.58h9.81Zm-.86-1.24v-8.42H411v8.42Zm-.84-5.27v.77h-1.92v2.46c0,.28.12.43.39.43h.45a.65.65,0,0,0,.39-.11c.14-.08.22-.5.27-1.25l.72.24a3.39,3.39,0,0,1-.38,1.6,1.37,1.37,0,0,1-.83.23h-.88a.89.89,0,0,1-.68-.27,1,1,0,0,1-.24-.69V808.3h-1.14a5.26,5.26,0,0,1-.69,2.29,4.13,4.13,0,0,1-1.89,1.46l-.4-.69a3.33,3.33,0,0,0,1.63-1.23,4.44,4.44,0,0,0,.57-1.83h-1.77v-.77Zm-.67-2v.77h-5.05v-.77Z"/></g><path class="j" d="M374,817.21v4.18h2.68v.46h-3.21v-4.64Z"/><path class="j" d="M381,817.82a2.87,2.87,0,0,1,0,3.43,2.11,2.11,0,0,1-1.66.69,2.07,2.07,0,0,1-1.64-.69,2.52,2.52,0,0,1-.57-1.71,2.57,2.57,0,0,1,.57-1.72,2.29,2.29,0,0,1,3.3,0Zm-2.91.33a2.45,2.45,0,0,0,0,2.77,1.52,1.52,0,0,0,1.25.55,1.57,1.57,0,0,0,1.26-.53,2.51,2.51,0,0,0,0-2.81,1.54,1.54,0,0,0-1.25-.53A1.55,1.55,0,0,0,378.07,818.15Z"/><path class="j" d="M382.85,817.21l2.62,3.78h0v-3.78H386v4.64h-.55L382.84,818h0v3.81h-.53v-4.64Z"/><path class="j" d="M390.33,817.54a1.82,1.82,0,0,1,.61,1.16h-.53a1.33,1.33,0,0,0-.47-.81,1.58,1.58,0,0,0-1-.29,1.48,1.48,0,0,0-1.2.53,2.1,2.1,0,0,0-.44,1.42,2.06,2.06,0,0,0,.43,1.39,1.71,1.71,0,0,0,1.36.54,2.48,2.48,0,0,0,.73-.11,2,2,0,0,0,.59-.26v-1.18H389v-.46h2v1.9a2.58,2.58,0,0,1-.81.42,3.81,3.81,0,0,1-1.08.15,2.15,2.15,0,0,1-1.71-.7,2.85,2.85,0,0,1,0-3.39,2,2,0,0,1,1.61-.73A2.15,2.15,0,0,1,390.33,817.54Z"/><path class="j" d="M395.13,817.53a1.64,1.64,0,0,1,.62,1.11h-.51a1.21,1.21,0,0,0-.5-.78,1.54,1.54,0,0,0-.92-.26,1.48,1.48,0,0,0-1.25.56,2.21,2.21,0,0,0-.41,1.39,2.16,2.16,0,0,0,.4,1.38,1.5,1.5,0,0,0,1.25.54,1.55,1.55,0,0,0,.94-.29,1.56,1.56,0,0,0,.55-.92h.51a2,2,0,0,1-.72,1.26,2.24,2.24,0,0,1-2.94-.29,3,3,0,0,1,0-3.37,2,2,0,0,1,1.67-.74A2.1,2.1,0,0,1,395.13,817.53Z"/><path class="j" d="M397.09,817.21v2h2.68v-2h.54v4.64h-.54v-2.16h-2.68v2.16h-.53v-4.64Z"/><path class="j" d="M404.52,817.21v.46h-2.75v1.56h2.6v.46h-2.6v1.7h2.87v.46h-3.4v-4.64Z"/><path class="j" d="M405.93,817.21l2.63,3.78h0v-3.78h.53v4.64h-.54L405.93,818h0v3.81h-.53v-4.64Z"/><path class="j" d="M413.42,817.54a1.87,1.87,0,0,1,.61,1.16h-.53a1.38,1.38,0,0,0-.47-.81,1.58,1.58,0,0,0-1-.29,1.46,1.46,0,0,0-1.2.53,2.1,2.1,0,0,0-.44,1.42,2.06,2.06,0,0,0,.43,1.39,1.71,1.71,0,0,0,1.36.54,2.53,2.53,0,0,0,.73-.11,2,2,0,0,0,.59-.26v-1.18H412v-.46h2v1.9a2.58,2.58,0,0,1-.81.42,3.81,3.81,0,0,1-1.08.15,2.13,2.13,0,0,1-1.71-.7,2.47,2.47,0,0,1-.57-1.69,2.58,2.58,0,0,1,.56-1.7,2,2,0,0,1,1.62-.73A2.15,2.15,0,0,1,413.42,817.54Z"/><path class="j" d="M418.28,817.54a1.82,1.82,0,0,1,.61,1.16h-.53a1.33,1.33,0,0,0-.47-.81,1.58,1.58,0,0,0-1-.29,1.48,1.48,0,0,0-1.2.53,2.1,2.1,0,0,0-.44,1.42,2.06,2.06,0,0,0,.43,1.39,1.71,1.71,0,0,0,1.36.54,2.48,2.48,0,0,0,.73-.11,2,2,0,0,0,.59-.26v-1.18H416.9v-.46h2v1.9a2.58,2.58,0,0,1-.81.42,3.76,3.76,0,0,1-1.08.15,2.13,2.13,0,0,1-1.71-.7,2.85,2.85,0,0,1,0-3.39,2,2,0,0,1,1.61-.73A2.15,2.15,0,0,1,418.28,817.54Z"/><path class="j" d="M423.45,817.82a2.87,2.87,0,0,1,0,3.43,2.1,2.1,0,0,1-1.65.69,2.07,2.07,0,0,1-1.65-.69,2.52,2.52,0,0,1-.57-1.71,2.57,2.57,0,0,1,.57-1.72,2.29,2.29,0,0,1,3.3,0Zm-2.91.33a2.45,2.45,0,0,0,0,2.77,1.53,1.53,0,0,0,1.26.55,1.57,1.57,0,0,0,1.25-.53,2.46,2.46,0,0,0,0-2.81,1.52,1.52,0,0,0-1.25-.53A1.55,1.55,0,0,0,420.54,818.15Z"/><path class="j" d="M425.32,817.21l2.62,3.78h0v-3.78h.54v4.64H428L425.31,818h0v3.81h-.53v-4.64Z"/><path class="j" d="M432.8,817.54a1.82,1.82,0,0,1,.61,1.16h-.53a1.33,1.33,0,0,0-.47-.81,1.55,1.55,0,0,0-1-.29,1.48,1.48,0,0,0-1.21.53,2.1,2.1,0,0,0-.44,1.42,2.06,2.06,0,0,0,.43,1.39,1.72,1.72,0,0,0,1.36.54,2.48,2.48,0,0,0,.73-.11,2,2,0,0,0,.59-.26v-1.18h-1.46v-.46h2v1.9a2.58,2.58,0,0,1-.81.42,3.76,3.76,0,0,1-1.08.15,2.15,2.15,0,0,1-1.71-.7,2.46,2.46,0,0,1-.56-1.69,2.53,2.53,0,0,1,.56-1.7,2,2,0,0,1,1.62-.73A2.14,2.14,0,0,1,432.8,817.54Z"/><path class="j" d="M434.5,817.21l1.48,2.26,1.47-2.26h.65L436.24,820v1.88h-.53V820l-1.85-2.76Z"/><path class="j" d="M439.13,817.21v2.87a1.49,1.49,0,0,0,.31,1,1.28,1.28,0,0,0,1,.37,1.31,1.31,0,0,0,1-.37,1.49,1.49,0,0,0,.31-1v-2.87h.53v2.86a1.91,1.91,0,0,1-.46,1.39,1.88,1.88,0,0,1-1.39.48,1.84,1.84,0,0,1-1.38-.48,1.87,1.87,0,0,1-.47-1.39v-2.86Z"/><path class="j" d="M445.21,817.21l1.83,4.64h-.58l-.49-1.3h-2.13l-.5,1.3h-.57l1.83-4.64Zm.59,2.89-.88-2.32h0L444,820.1Z"/><path class="j" d="M448.07,817.21l2.62,3.78h0v-3.78h.54v4.64h-.55L448.06,818h0v3.81h-.53v-4.64Z"/><g class="h"><path d="M380.45,762.7c-.69,0-1-.38-1-1.12v-.53a11.7,11.7,0,0,1-2.05,1l-.49-.73a10.24,10.24,0,0,0,2.54-1.27v-4.69h-1.5a20.38,20.38,0,0,1-.41,2.37,8.77,8.77,0,0,1-3.44,5.13l-.56-.69a8.49,8.49,0,0,0,3.13-4.48,19.72,19.72,0,0,0,.4-2.33h-3.28v-.84h3.37c.07-.82.11-1.69.11-2.63h.85c0,.94,0,1.81-.1,2.63h6.33v.84h-4.05v4a10.31,10.31,0,0,0,2.35-3.06l.77.4a11.29,11.29,0,0,1-3.12,3.77v.91c0,.35.13.53.42.53h2a.53.53,0,0,0,.48-.26,6.4,6.4,0,0,0,.24-1.91l.81.27a5.4,5.4,0,0,1-.45,2.33,1.12,1.12,0,0,1-.92.36Zm2.53-9.16-.59.6a14.63,14.63,0,0,0-2.24-1.73l.57-.55A17.47,17.47,0,0,1,383,753.54Z"/><path d="M392.28,757.31A29.08,29.08,0,0,0,394.5,752l.86.3a29.75,29.75,0,0,1-2.17,5.06h3.25v.84H385.58v-.84Zm-2.65,1.88a14.88,14.88,0,0,1-2.93,3.57l-.7-.5a13.78,13.78,0,0,0,2.86-3.45Zm-.79-3-.82.4a25.87,25.87,0,0,0-1.68-3.53l.81-.39A33,33,0,0,1,388.84,756.16Zm2.86-.5-.79.4a32.91,32.91,0,0,0-1.66-3.73l.81-.38A32,32,0,0,1,391.7,755.66Zm4.3,6.54-.77.54a28.36,28.36,0,0,0-2.73-3.53l.72-.45A30,30,0,0,1,396,762.2Z"/><path d="M400.31,752.14a9.41,9.41,0,0,1-2.65,3.6l-.25-.82a8.14,8.14,0,0,0,2.16-3.12Zm.26,3.1a8.84,8.84,0,0,1-1,1.84v5.77h-.78V758a9.67,9.67,0,0,1-1,1l-.25-.79a8.94,8.94,0,0,0,2.36-3.32Zm1.83,3.18v-1.18h.82v1.18H405v.77h-1.74v1.69c.71-.12,1.41-.26,2.09-.41v.77c-1.48.36-3.08.65-4.8.89l-.2-.83c.71-.07,1.4-.17,2.09-.27v-1.84h-1.69v-.77Zm0-4.8V752h.83v1.58h1.66v.77h-1.66V756h1.92v-.51h3.39v.79h-1.14v5.41q0,1.11-1,1.11H405l-.18-.8c.45,0,.9.06,1.31.06s.4-.19.4-.58v-5.2H405.2v.49h-4.66V756h1.87v-1.62h-1.63v-.77Zm5.92-.92v.78h-3v-.78Z"/></g><path class="j" d="M374,766.05v4.18h2.68v.46h-3.21v-4.64Z"/><path class="j" d="M381,766.66a2.87,2.87,0,0,1,0,3.43,2.11,2.11,0,0,1-1.66.7,2.07,2.07,0,0,1-1.64-.7,2.52,2.52,0,0,1-.57-1.71,2.57,2.57,0,0,1,.57-1.72,2.29,2.29,0,0,1,3.3,0Zm-2.91.33a2.45,2.45,0,0,0,0,2.77,1.52,1.52,0,0,0,1.25.55,1.57,1.57,0,0,0,1.26-.53,2.51,2.51,0,0,0,0-2.81,1.54,1.54,0,0,0-1.25-.53A1.55,1.55,0,0,0,378.07,767Z"/><path class="j" d="M382.85,766.05l2.62,3.78h0v-3.78H386v4.64h-.55l-2.64-3.81h0v3.81h-.53v-4.64Z"/><path class="j" d="M390.33,766.38a1.85,1.85,0,0,1,.61,1.16h-.53a1.27,1.27,0,0,0-.47-.8,1.53,1.53,0,0,0-1-.3,1.48,1.48,0,0,0-1.2.53,2.1,2.1,0,0,0-.44,1.42,2.06,2.06,0,0,0,.43,1.39,1.68,1.68,0,0,0,1.36.54,2.48,2.48,0,0,0,.73-.11,2,2,0,0,0,.59-.26v-1.18H389v-.46h2v1.9a2.39,2.39,0,0,1-.81.42,3.81,3.81,0,0,1-1.08.16,2.15,2.15,0,0,1-1.71-.71,2.85,2.85,0,0,1,0-3.39,2,2,0,0,1,1.61-.73A2.15,2.15,0,0,1,390.33,766.38Z"/><path class="j" d="M392.17,766.05l1.25,1.81,1.26-1.81h.66l-1.6,2.23,1.72,2.41h-.65l-1.39-2-1.38,2h-.65l1.71-2.41-1.59-2.23Z"/><path class="j" d="M396.53,766.05v4.64H396v-4.64Z"/><path class="j" d="M398.06,766.05l2.63,3.78h0v-3.78h.53v4.64h-.54l-2.64-3.81h0v3.81h-.53v-4.64Z"/><path class="j" d="M405.55,766.38a1.9,1.9,0,0,1,.61,1.16h-.54a1.26,1.26,0,0,0-.46-.8,1.53,1.53,0,0,0-1-.3,1.46,1.46,0,0,0-1.2.53,2.51,2.51,0,0,0,0,2.81,1.71,1.71,0,0,0,1.37.54,2.58,2.58,0,0,0,.73-.11,1.82,1.82,0,0,0,.58-.26v-1.18h-1.45v-.46h2v1.9a2.39,2.39,0,0,1-.81.42,3.81,3.81,0,0,1-1.08.16,2.12,2.12,0,0,1-1.71-.71,2.47,2.47,0,0,1-.57-1.69,2.58,2.58,0,0,1,.56-1.7,2,2,0,0,1,1.62-.73A2.15,2.15,0,0,1,405.55,766.38Z"/><path class="j" d="M409.47,766.05v3.16a1.79,1.79,0,0,1-.31,1.15,1.4,1.4,0,0,1-1.13.43,1.39,1.39,0,0,1-1-.36,1.46,1.46,0,0,1-.36-1.06v-.16h.53v.16c0,.62.28.94.85.94a.82.82,0,0,0,.68-.28,1.33,1.33,0,0,0,.21-.84v-3.14Z"/><path class="j" d="M411,766.05v4.64h-.53v-4.64Z"/><path class="j" d="M415.23,766.05v.46h-2.76v1.56h2.6v.46h-2.6v1.7h2.87v.46h-3.4v-4.64Z"/><g class="h"><path d="M385.15,712v.82h-3.08v2.81h3.54v.84H375.2v-.84h3.55v-2.81h-3.09V712ZM378,715l-.72.33a10.9,10.9,0,0,0-1.05-1.86l.76-.25A12,12,0,0,1,378,715Zm6.27,7.56h-.85V722h-6v.53h-.85v-5.15h7.67Zm-.85-3.23v-1.2h-6v1.2Zm0,2V720h-6v1.24Zm-2.16-8.47h-1.64v2.81h1.64Zm3.29.55a7.88,7.88,0,0,1-1,1.95l-.74-.27a7.32,7.32,0,0,0,.92-1.88Z"/><path d="M391.33,712v.67c-.39,1.1-.84,2.24-1.37,3.41a5.64,5.64,0,0,1,1.28,2.83,1.53,1.53,0,0,1-.37,1.13,3,3,0,0,1-1.83.44l-.28-.86c.18,0,.33,0,.46,0a2,2,0,0,0,.93-.21.66.66,0,0,0,.23-.55,4.38,4.38,0,0,0-1.29-2.7,30.74,30.74,0,0,0,1.36-3.4h-2.16v9.73h-.84V712Zm6.08,10.47h-.84v-.93h-3.71v.91H392V712.14h5.39Zm-.84-6V713h-3.71v3.4Zm0,4.29v-3.48h-3.71v3.48Z"/><path d="M401.71,711.72a9.27,9.27,0,0,1-2.65,3.6l-.26-.82a8,8,0,0,0,2.16-3.11Zm.26,3.11a8.56,8.56,0,0,1-1,1.83v5.77h-.77v-4.81a9.87,9.87,0,0,1-1,1l-.25-.79a8.86,8.86,0,0,0,2.36-3.33Zm1.82,3.18v-1.19h.83V718h1.74v.77h-1.74v1.69c.71-.12,1.4-.27,2.09-.41v.77c-1.49.36-3.08.64-4.8.88l-.2-.82c.7-.08,1.4-.17,2.08-.28v-1.83H402.1V718Zm0-4.8v-1.58h.82v1.58h1.67V714h-1.67v1.62h1.92v-.52H410v.79h-1.14v5.41c0,.75-.33,1.12-1,1.12h-1.42l-.18-.81q.69.06,1.32.06c.27,0,.4-.19.4-.57v-5.21H406.6v.49h-4.67v-.76h1.88V714h-1.64v-.77Zm5.92-.92v.78h-3v-.78Z"/></g><path class="j" d="M377.31,725.64v3.16a1.84,1.84,0,0,1-.31,1.14,1.37,1.37,0,0,1-1.13.43,1.33,1.33,0,0,1-1-.36,1.4,1.4,0,0,1-.36-1v-.16H375V729c0,.63.28.94.84.94a.83.83,0,0,0,.69-.27,1.44,1.44,0,0,0,.21-.84v-3.14Z"/><path class="j" d="M378.8,725.64v4.64h-.52v-4.64Z"/><path class="j" d="M380.34,725.64l2.62,3.77h0v-3.77h.54v4.64H383l-2.64-3.82h0v3.82h-.53v-4.64Z"/><path class="j" d="M384.66,725.64l1.47,2.26,1.48-2.26h.64l-1.85,2.75v1.89h-.53v-1.89L384,725.64Z"/><path class="j" d="M390.73,725.64l1.83,4.64H392l-.5-1.3h-2.13l-.49,1.3h-.57l1.82-4.64Zm.59,2.89-.88-2.32h0l-.89,2.32Z"/><path class="j" d="M393.58,725.64l2.63,3.77h0v-3.77h.53v4.64h-.54l-2.64-3.82h0v3.82H393v-4.64Z"/><path class="j" d="M401.07,726a1.87,1.87,0,0,1,.61,1.16h-.54a1.32,1.32,0,0,0-.46-.81,1.59,1.59,0,0,0-1-.3,1.49,1.49,0,0,0-1.2.53A2.13,2.13,0,0,0,398,728a2.05,2.05,0,0,0,.43,1.38,1.68,1.68,0,0,0,1.36.54,3,3,0,0,0,.73-.1,2.41,2.41,0,0,0,.58-.26v-1.18h-1.45v-.47h2v1.9a2.39,2.39,0,0,1-.81.42,3.49,3.49,0,0,1-1.08.16,2.12,2.12,0,0,1-1.71-.7,2.49,2.49,0,0,1-.57-1.69,2.56,2.56,0,0,1,.56-1.7,2,2,0,0,1,1.62-.73A2.1,2.1,0,0,1,401.07,726Z"/><path class="j" d="M405,725.64v3.16a1.78,1.78,0,0,1-.31,1.14,1.64,1.64,0,0,1-2.13.07,1.44,1.44,0,0,1-.36-1v-.16h.53V729c0,.63.28.94.85.94a.81.81,0,0,0,.68-.27,1.37,1.37,0,0,0,.21-.84v-3.14Z"/><path class="j" d="M406.49,725.64v4.64H406v-4.64Z"/><path class="j" d="M410.75,725.64v.46H408v1.55h2.6v.46H408v1.71h2.87v.46h-3.4v-4.64Z"/><g class="h"><path d="M380.6,677.41l.15-1.2.87.12c0,.37-.07.73-.12,1.08h4.81v.82h-4.94c-.07.43-.16.82-.24,1.21h4.54v6.62c0,.75-.36,1.14-1.06,1.14h-1.18l-.23-.84,1.12,0a.45.45,0,0,0,.5-.51v-5.62h-7.67v7h-.85v-7.83h3.94c.09-.41.17-.82.24-1.21h-4.84v-.82Zm-.26,4.73h1.26c.26-.5.5-1,.72-1.56l.79.29a13.66,13.66,0,0,1-.69,1.27h1.37v.75h-2.4v1.26h2.76v.77h-2.76v2.17h-.84v-2.17h-2.74v-.77h2.74v-1.26h-2.36v-.75h1.32a7.09,7.09,0,0,0-.65-1.22l.77-.28A9.59,9.59,0,0,1,380.34,682.14Z"/><path d="M393.42,676.24v2.15h4.3V684h-.86v-.75h-3.44v4.09h-.89v-4.09H389.1V684h-.86v-5.64h4.29v-2.15Zm-.89,6.2v-3.21H389.1v3.21Zm4.33,0v-3.21h-3.44v3.21Z"/><path d="M401.13,680.65v-2.59h-1.51v-.84h3.89v.84H402v2.59h1.37v.83H402v2.84c.56-.17,1.08-.36,1.61-.57v.83a28.3,28.3,0,0,1-3.9,1.17l-.21-.83c.56-.1,1.11-.22,1.66-.36v-3.08H399.8v-.83Zm8.95-3.78v.84h-2.16a11.7,11.7,0,0,1-.54,1.51v8h-.84v-6.39A13.54,13.54,0,0,1,404,684l-.52-.69a12.19,12.19,0,0,0,3.65-5.61H404v-.84Zm.51,6.5-.72.5a26.41,26.41,0,0,0-2.33-3.32l.66-.42A28.45,28.45,0,0,1,410.59,683.37Z"/></g><path class="j" d="M376,690.45l2.63,3.78h0v-3.78h.53v4.64h-.54L376,691.28h0v3.81h-.54v-4.64Z"/><path class="j" d="M382.09,690.45l1.83,4.64h-.58l-.49-1.3h-2.13l-.5,1.3h-.57l1.83-4.64Zm.59,2.89L381.8,691h0l-.9,2.32Z"/><path class="j" d="M385,690.45l2.62,3.78h0v-3.78h.54v4.64h-.55l-2.64-3.81h0v3.81h-.53v-4.64Z"/><path class="j" d="M392.33,690.45v.44l-2.88,3.74h3v.46h-3.73v-.43l2.89-3.75H389v-.46Z"/><path class="j" d="M393.65,690.45v2h2.69v-2h.53v4.64h-.53v-2.16h-2.69v2.16h-.53v-4.64Z"/><path class="j" d="M401.47,691.05a2.58,2.58,0,0,1,.57,1.73,2.54,2.54,0,0,1-.57,1.71,2.32,2.32,0,0,1-3.3,0,2.87,2.87,0,0,1,0-3.43,2.31,2.31,0,0,1,3.3,0Zm-2.91.34a2.49,2.49,0,0,0,0,2.77,1.72,1.72,0,0,0,2.51,0,2.1,2.1,0,0,0,.44-1.39,2.14,2.14,0,0,0-.44-1.41,1.52,1.52,0,0,0-1.24-.54A1.57,1.57,0,0,0,398.56,691.39Z"/><path class="j" d="M403.34,690.45l2.63,3.78h0v-3.78h.53v4.64H406l-2.63-3.81h0v3.81h-.54v-4.64Z"/><path class="j" d="M410.82,690.78a1.78,1.78,0,0,1,.61,1.16h-.53a1.33,1.33,0,0,0-.47-.81,1.54,1.54,0,0,0-1-.3,1.47,1.47,0,0,0-1.2.54,2.1,2.1,0,0,0-.44,1.42,2.07,2.07,0,0,0,.42,1.38,1.7,1.7,0,0,0,1.37.54,2.57,2.57,0,0,0,.73-.1,1.93,1.93,0,0,0,.58-.26v-1.18h-1.45v-.46h2v1.89a2.5,2.5,0,0,1-.81.43,3.81,3.81,0,0,1-1.08.15,2.12,2.12,0,0,1-1.71-.7,2.49,2.49,0,0,1-.57-1.69,2.53,2.53,0,0,1,.56-1.7,2,2,0,0,1,1.62-.73A2.11,2.11,0,0,1,410.82,690.78Z"/><path class="j" d="M412.85,690.45v2h2.69v-2h.53v4.64h-.53v-2.16h-2.69v2.16h-.53v-4.64Z"/><path class="j" d="M417.53,690.45v2.87a1.49,1.49,0,0,0,.31,1,1.28,1.28,0,0,0,1,.36,1.33,1.33,0,0,0,1-.36,1.54,1.54,0,0,0,.3-1v-2.87h.53v2.86a1.91,1.91,0,0,1-.46,1.39,1.88,1.88,0,0,1-1.39.48,1.84,1.84,0,0,1-1.38-.48,1.87,1.87,0,0,1-.47-1.39v-2.86Z"/><path class="j" d="M423.62,690.45l1.82,4.64h-.58l-.49-1.3h-2.13l-.5,1.3h-.57l1.83-4.64Zm.58,2.89-.88-2.32h0l-.89,2.32Z"/><path class="j" d="M426.47,690.45l2.62,3.78h0v-3.78h.54v4.64h-.55l-2.64-3.81h0v3.81h-.53v-4.64Z"/><g class="h"><path d="M384.39,625.36v.77a29.19,29.19,0,0,1-2.65,1.47v.62h4.57V629h-4.57v2c0,.65-.35,1-1,1h-1.53l-.2-.79,1.43,0c.28,0,.44-.17.44-.5V629H376v-.81h4.86v-1c1-.44,1.76-.8,2.29-1.09h-5.23v-.77Zm1.82.84h-.85v-1.86h-8.43v1.86h-.84v-2.69H383a14.29,14.29,0,0,0,1.37-2.5l.87.32a12.8,12.8,0,0,1-1.31,2.18h2.32ZM379,623.07l-.75.37a16.46,16.46,0,0,0-1.27-1.87l.78-.38A18,18,0,0,1,379,623.07Zm2.8-.13-.77.38a14.14,14.14,0,0,0-1.15-2l.78-.38A18.41,18.41,0,0,1,381.83,622.94Z"/><path d="M398.33,622.84h-8.68v2.94A12.84,12.84,0,0,1,388.2,632l-.66-.57a11.74,11.74,0,0,0,1.24-5.69v-3.73h4.45a10.12,10.12,0,0,0-.45-.93l.92-.15c.14.32.28.69.41,1.08h4.22Zm-5.58.71a14.5,14.5,0,0,1-.69,1.88V632h-.87v-5a15.51,15.51,0,0,1-1,1.31l-.3-.94a11,11,0,0,0,2-4Zm3.67,1.73v-1.71h.85v1.71h1.25v.84h-1.25v4.69c0,.76-.37,1.16-1.09,1.16h-1.62l-.18-.84c.53,0,1,.06,1.5.06s.54-.2.54-.6v-4.47H392.9v-.84Zm-1,4.06-.66.46a17.32,17.32,0,0,0-1.69-2.26l.66-.4A18.74,18.74,0,0,1,395.45,629.34Z"/><path d="M402.45,621.33a9.27,9.27,0,0,1-2.65,3.6l-.25-.82a8.18,8.18,0,0,0,2.16-3.11Zm.26,3.11a8.76,8.76,0,0,1-1,1.83V632h-.78v-4.81a9.76,9.76,0,0,1-1,1l-.25-.79a9.17,9.17,0,0,0,2.36-3.33Zm1.83,3.18v-1.19h.82v1.19h1.74v.76h-1.74v1.69c.71-.12,1.41-.26,2.09-.4v.76c-1.49.36-3.08.65-4.8.89l-.2-.83c.71-.07,1.4-.16,2.09-.27v-1.84h-1.69v-.76Zm0-4.8v-1.58h.83v1.58H407v.77h-1.66v1.62h1.92v-.52h3.39v.79h-1.14v5.41q0,1.11-1,1.11h-1.42l-.17-.8c.45,0,.89.06,1.31.06.27,0,.4-.19.4-.57v-5.21h-1.37V626h-4.66v-.76h1.87v-1.62h-1.63v-.77Zm5.92-.93v.78h-3v-.78Z"/></g><path class="j" d="M376,635.25l1.25,1.8,1.26-1.8h.66l-1.6,2.23,1.72,2.41h-.66l-1.38-2-1.38,2h-.65l1.7-2.41-1.58-2.23Z"/><path class="j" d="M380.29,635.25v2.86a1.52,1.52,0,0,0,.31,1,1.28,1.28,0,0,0,1,.36,1.32,1.32,0,0,0,1-.36,1.57,1.57,0,0,0,.3-1v-2.86h.54v2.86a1.91,1.91,0,0,1-.47,1.38,2.22,2.22,0,0,1-2.77,0,2,2,0,0,1-.47-1.39v-2.86Z"/><path class="j" d="M387.69,635.25v.46h-2.76v1.55h2.6v.46h-2.6v1.71h2.87v.46h-3.4v-4.64Z"/><path class="j" d="M391.65,635.25v.46h-2.57v1.56h2.43v.46h-2.43v2.16h-.54v-4.64Z"/><path class="j" d="M392.83,635.25v2.86a1.52,1.52,0,0,0,.3,1,1.61,1.61,0,0,0,2,0,1.57,1.57,0,0,0,.31-1v-2.86H396v2.86a2,2,0,0,1-.46,1.38,2.23,2.23,0,0,1-2.78,0,2,2,0,0,1-.47-1.39v-2.86Z"/><path class="j" d="M399.36,635.25v3.16a1.78,1.78,0,0,1-.31,1.14,1.35,1.35,0,0,1-1.12.43,1.32,1.32,0,0,1-1-.36,1.42,1.42,0,0,1-.37-1v-.16h.54v.15c0,.63.28.94.84.94a.79.79,0,0,0,.68-.28,1.31,1.31,0,0,0,.21-.83v-3.14Z"/><path class="j" d="M400.86,635.25v4.64h-.53v-4.64Z"/><path class="j" d="M405.12,635.25v.46h-2.75v1.55H405v.46h-2.6v1.71h2.86v.46h-3.39v-4.64Z"/><g class="h"><path d="M378.62,570.22v-4.6h.87v4.6h7.27v.84h-3.95a7,7,0,0,0,4.09,4.49l-.5.81a8,8,0,0,1-4.42-5.3h-2.49v4.34a23.66,23.66,0,0,0,2.68-.83l.23.83a38,38,0,0,1-3.78,1.06l-.27-.79a.44.44,0,0,0,.27-.42v-4.19h-2.43v-.84Zm6.9-3.91a12.65,12.65,0,0,1-4.33,2.91l-.51-.68a12.34,12.34,0,0,0,4.25-2.82Z"/><path d="M397.13,566v4.8a20.54,20.54,0,0,0,.2,3.78q.19.81.48.81c.16,0,.29-.55.4-1.64l.76.37a7.52,7.52,0,0,1-.46,1.85.75.75,0,0,1-.6.43c-.58,0-1-.38-1.25-1.13a14.72,14.72,0,0,1-.42-4.47v-4h-6v3.82a11.5,11.5,0,0,1-1.46,5.86l-.72-.59a10.5,10.5,0,0,0,1.32-5.27V566Zm-3.7,4.75a13.92,13.92,0,0,0,1.15-2.9l.85.14a16,16,0,0,1-1.43,3.53c.73,1,1.35,2,1.87,2.87l-.78.52c-.48-.82-1-1.69-1.61-2.58a11.92,11.92,0,0,1-2.65,2.79l-.58-.73a12,12,0,0,0,2.69-2.83c-.65-.93-1.37-1.88-2.15-2.86l.71-.43C392.2,569.17,392.84,570,393.43,570.79Z"/><path d="M402.76,565.81a9.27,9.27,0,0,1-2.65,3.6l-.26-.81a8,8,0,0,0,2.16-3.12Zm.26,3.11a9.33,9.33,0,0,1-1,1.84v5.76h-.78v-4.81a9.87,9.87,0,0,1-1,1l-.25-.79a9,9,0,0,0,2.37-3.32Zm1.82,3.18v-1.19h.83v1.19h1.74v.77h-1.74v1.69c.71-.12,1.4-.27,2.09-.41v.77c-1.49.36-3.08.64-4.8.88l-.2-.82c.71-.08,1.4-.17,2.08-.28v-1.83h-1.69v-.77Zm0-4.8v-1.58h.82v1.58h1.67v.77h-1.67v1.62h1.92v-.52H411V570h-1.14v5.41c0,.75-.33,1.12-1,1.12h-1.42l-.18-.8c.46,0,.9,0,1.32,0,.27,0,.4-.19.4-.57V570h-1.37v.5H403v-.77h1.88v-1.62h-1.64v-.77Zm5.92-.92v.78h-3v-.78Z"/></g><path class="j" d="M379.23,580.05a1.6,1.6,0,0,1,.62,1.1h-.51a1.2,1.2,0,0,0-.49-.78,1.64,1.64,0,0,0-.93-.26,1.49,1.49,0,0,0-1.25.57,2.21,2.21,0,0,0-.4,1.39,2.16,2.16,0,0,0,.4,1.38,1.66,1.66,0,0,0,2.18.24,1.46,1.46,0,0,0,.55-.91h.52a2.06,2.06,0,0,1-.73,1.26,2.24,2.24,0,0,1-2.94-.29,2.58,2.58,0,0,1-.52-1.68,2.6,2.6,0,0,1,.54-1.7,2,2,0,0,1,1.66-.73A2,2,0,0,1,379.23,580.05Z"/><path class="j" d="M381.19,579.73v2h2.69v-2h.53v4.64h-.53v-2.16h-2.69v2.16h-.53v-4.64Z"/><path class="j" d="M387.32,579.73l1.82,4.64h-.58l-.49-1.3h-2.13l-.5,1.3h-.57l1.83-4.64Zm.58,2.89L387,580.3h0l-.89,2.32Z"/><path class="j" d="M390.17,579.73l2.63,3.78h0v-3.78h.54v4.64h-.55l-2.64-3.82h0v3.82h-.53v-4.64Z"/><path class="j" d="M397.65,580.06a1.78,1.78,0,0,1,.61,1.16h-.53a1.33,1.33,0,0,0-.47-.81,1.56,1.56,0,0,0-1-.3,1.49,1.49,0,0,0-1.21.54,2.1,2.1,0,0,0-.44,1.42,2,2,0,0,0,.43,1.38,1.7,1.7,0,0,0,1.37.54,2.84,2.84,0,0,0,.72-.1,2.49,2.49,0,0,0,.59-.26v-1.18h-1.46V582h2v1.9a2.54,2.54,0,0,1-.82.42,3.44,3.44,0,0,1-1.08.16,2.15,2.15,0,0,1-1.71-.7,2.85,2.85,0,0,1,0-3.39,2,2,0,0,1,1.62-.73A2.07,2.07,0,0,1,397.65,580.06Z"/><path class="j" d="M402.25,579.73v.46h-2.57v1.56h2.44v.46h-2.44v2.16h-.54v-4.64Z"/><path class="j" d="M406.18,579.73v.46h-2.75v1.55H406v.47h-2.6v1.7h2.87v.46h-3.4v-4.64Z"/><path class="j" d="M407.59,579.73l2.63,3.78h0v-3.78h.53v4.64h-.54l-2.64-3.82h0v3.82H407v-4.64Z"/><path class="j" d="M415.08,580.06a1.87,1.87,0,0,1,.61,1.16h-.54a1.32,1.32,0,0,0-.46-.81,1.59,1.59,0,0,0-1-.3,1.47,1.47,0,0,0-1.2.54,2.1,2.1,0,0,0-.44,1.42,2,2,0,0,0,.43,1.38,1.68,1.68,0,0,0,1.36.54,2.92,2.92,0,0,0,.73-.1,2.41,2.41,0,0,0,.58-.26v-1.18H413.7V582h2v1.9a2.39,2.39,0,0,1-.81.42,3.49,3.49,0,0,1-1.08.16,2.12,2.12,0,0,1-1.71-.7,2.49,2.49,0,0,1-.57-1.69,2.56,2.56,0,0,1,.56-1.7,2,2,0,0,1,1.62-.73A2.1,2.1,0,0,1,415.08,580.06Z"/><path class="j" d="M419,579.73v3.16a1.76,1.76,0,0,1-.31,1.14,1.64,1.64,0,0,1-2.13.07,1.42,1.42,0,0,1-.36-1.05v-.16h.53V583c0,.63.28,1,.85,1a.82.82,0,0,0,.68-.28,1.37,1.37,0,0,0,.21-.84v-3.14Z"/><path class="j" d="M420.5,579.73v4.64H420v-4.64Z"/><path class="j" d="M424.76,579.73v.46H422v1.55h2.6v.47H422v1.7h2.86v.46h-3.4v-4.64Z"/><g class="h"><path d="M385.2,488.1v.84h-4.36v3.47h3.76v.82h-3.76v3.89h4.78V498H375.2v-.84H380v-3.89h-3.76v-.82H380v-3.47h-4.35v-.84Z"/><path d="M389.05,489.88v-2.34h.86v2.34h1.42v.82h-1.42v.77a25.66,25.66,0,0,1,1.78,2l-.51.75c-.49-.81-.91-1.46-1.27-1.94v6.19h-.86v-6.19a13.9,13.9,0,0,1-1.81,3.49l-.39-.95A11,11,0,0,0,389,490.7h-1.87v-.82Zm4.27,8.5-.18-.84c.67,0,1.3,0,1.92,0,.36,0,.54-.21.54-.6v-6.22h-3.69V490h3.69V487.6h.86V490h1.28v.82h-1.28v6.45c0,.76-.37,1.16-1.1,1.16Zm1.32-3.5-.7.5a25.51,25.51,0,0,0-1.83-2.87l.7-.44A22.13,22.13,0,0,1,394.64,494.88Z"/><path d="M404,488.65l.15-1.2.87.12q0,.56-.12,1.08h4.81v.82H404.8c-.07.43-.16.83-.24,1.21h4.55v6.62c0,.76-.36,1.14-1.07,1.14h-1.18l-.22-.84,1.11,0a.45.45,0,0,0,.51-.51v-5.62h-7.68v7h-.85v-7.83h3.94c.09-.41.17-.82.24-1.21h-4.84v-.82Zm-.26,4.73H405a16,16,0,0,0,.72-1.56l.79.29a13.65,13.65,0,0,1-.68,1.27h1.36v.75h-2.39v1.26h2.75v.77h-2.75v2.17H404v-2.17h-2.75v-.77H404v-1.26h-2.37v-.75h1.32a6.38,6.38,0,0,0-.65-1.21l.77-.29A9.59,9.59,0,0,1,403.77,493.38Z"/><path d="M413.71,487.78a9.31,9.31,0,0,1-2.65,3.59l-.26-.81a7.93,7.93,0,0,0,2.16-3.12Zm.26,3.1a8.88,8.88,0,0,1-1,1.84v5.77h-.77v-4.81a9.78,9.78,0,0,1-1,1l-.25-.79a8.83,8.83,0,0,0,2.36-3.32Zm1.82,3.18v-1.19h.83v1.19h1.74v.77h-1.74v1.69c.71-.12,1.4-.26,2.09-.41v.77c-1.49.36-3.08.65-4.8.89l-.2-.83c.7-.07,1.4-.17,2.08-.28v-1.83H414.1v-.77Zm0-4.8v-1.58h.82v1.58h1.67V490h-1.67v1.62h1.92v-.51H422v.79h-1.14v5.41c0,.74-.33,1.11-1,1.11h-1.42l-.18-.8c.46,0,.9.06,1.32.06.27,0,.4-.19.4-.58v-5.2H418.6v.49h-4.67v-.77h1.88V490h-1.64v-.77Zm5.92-.92v.78h-3v-.78Z"/></g><path class="j" d="M375,501.69l1,3.9h0l1.06-3.9h.57l1.06,3.9h0l1-3.9h.6l-1.33,4.64h-.59l-1.05-3.86h0l-1.06,3.86h-.6l-1.33-4.64Z"/><path class="j" d="M382.9,501.69l1.82,4.64h-.57l-.5-1.3h-2.13l-.49,1.3h-.58l1.83-4.64Zm.58,2.89-.87-2.32h0l-.89,2.32Z"/><path class="j" d="M385.75,501.69l2.63,3.78h0v-3.78h.53v4.64h-.55l-2.63-3.81h0v3.81h-.54v-4.64Z"/><path class="j" d="M393.23,502a1.78,1.78,0,0,1,.61,1.16h-.53a1.33,1.33,0,0,0-.47-.81,1.53,1.53,0,0,0-1-.29,1.45,1.45,0,0,0-1.2.53,2.46,2.46,0,0,0,0,2.81A1.73,1.73,0,0,0,392,506a2.58,2.58,0,0,0,.73-.11,1.93,1.93,0,0,0,.58-.26v-1.18h-1.46V504h2v1.9a2.64,2.64,0,0,1-.82.42,3.69,3.69,0,0,1-1.07.15,2.12,2.12,0,0,1-1.71-.7,2.47,2.47,0,0,1-.57-1.69,2.53,2.53,0,0,1,.56-1.7,2,2,0,0,1,1.62-.73A2.11,2.11,0,0,1,393.23,502Z"/><path class="j" d="M398,502a1.6,1.6,0,0,1,.62,1.11h-.51a1.16,1.16,0,0,0-.49-.78,1.57,1.57,0,0,0-.93-.26,1.49,1.49,0,0,0-1.25.56,2.21,2.21,0,0,0-.4,1.39,2.16,2.16,0,0,0,.4,1.38,1.48,1.48,0,0,0,1.24.54,1.55,1.55,0,0,0,.94-.29,1.58,1.58,0,0,0,.56-.92h.51A2.06,2.06,0,0,1,398,506a2.24,2.24,0,0,1-2.94-.29,2.94,2.94,0,0,1,0-3.37,2,2,0,0,1,1.66-.74A2.08,2.08,0,0,1,398,502Z"/><path class="j" d="M400,501.69v2.87a1.49,1.49,0,0,0,.31,1,1.28,1.28,0,0,0,1,.37,1.32,1.32,0,0,0,1-.37,1.54,1.54,0,0,0,.3-1v-2.87h.54v2.86a1.92,1.92,0,0,1-.47,1.39,1.88,1.88,0,0,1-1.39.48,1.84,1.84,0,0,1-1.38-.48,1.92,1.92,0,0,1-.47-1.39v-2.86Z"/><path class="j" d="M404.66,501.69l2.63,3.78h0v-3.78h.53v4.64h-.55l-2.64-3.81h0v3.81h-.53v-4.64Z"/><path class="j" d="M409.33,501.69l2.63,3.78h0v-3.78h.53v4.64H412l-2.64-3.81h0v3.81h-.54v-4.64Z"/><path class="j" d="M415.42,501.69l1.83,4.64h-.58l-.49-1.3h-2.13l-.5,1.3H413l1.83-4.64Zm.59,2.89-.88-2.32h0l-.89,2.32Z"/><path class="j" d="M418.28,501.69l2.62,3.78h0v-3.78h.54v4.64h-.55l-2.64-3.81h0v3.81h-.53v-4.64Z"/><path class="j" d="M424.82,501.69v3.16a1.79,1.79,0,0,1-.31,1.15,1.67,1.67,0,0,1-2.13.07A1.46,1.46,0,0,1,422,505v-.16h.53V505c0,.62.28.94.85.94a.82.82,0,0,0,.68-.28,1.35,1.35,0,0,0,.21-.84v-3.14Z"/><path class="j" d="M426.32,501.69v4.64h-.53v-4.64Z"/><path class="j" d="M430.58,501.69v.46h-2.75v1.56h2.6v.46h-2.6v1.7h2.86v.46h-3.4v-4.64Z"/><g class="h"><path d="M379.18,449.25l.15-1.2.87.12q0,.56-.12,1.08h4.81v.81H380c-.07.43-.15.83-.24,1.21h4.55v6.62c0,.76-.36,1.14-1.07,1.14H382l-.22-.84,1.11,0a.46.46,0,0,0,.51-.52v-5.61h-7.68v7h-.85v-7.83h3.94c.09-.41.17-.81.24-1.21h-4.84v-.81Zm-.26,4.72h1.26a16,16,0,0,0,.72-1.56l.79.29A11.5,11.5,0,0,1,381,454h1.36v.76H380V456h2.75v.76H380v2.17h-.84v-2.17h-2.75V456h2.75v-1.26h-2.37V454h1.32a6.38,6.38,0,0,0-.65-1.21l.77-.29A9.59,9.59,0,0,1,378.92,454Z"/><path d="M388.7,456.44l-.57-.71a6.26,6.26,0,0,0,2.66-3.32,12.3,12.3,0,0,0,.32-1.52h-3.42v8.21h-.87v-9.05h4.39c.06-.61.09-1.27.09-2h.88c0,.71,0,1.37-.08,2h4.2v7.72c0,.81-.39,1.21-1.16,1.21h-1.88l-.24-.86,1.83.05a.52.52,0,0,0,.58-.59v-6.69H392a11.28,11.28,0,0,1-.23,1.28,27.09,27.09,0,0,1,3.14,3.48l-.64.66a24.11,24.11,0,0,0-2.75-3.27A6.81,6.81,0,0,1,388.7,456.44Z"/><path d="M399.72,452.48v-2.59h-1.51v-.84h3.88v.84h-1.53v2.59h1.36v.83h-1.36v2.84c.55-.16,1.08-.36,1.6-.56v.83a28.16,28.16,0,0,1-3.89,1.16l-.22-.83a16,16,0,0,0,1.67-.36v-3.08h-1.33v-.83Zm8.95-3.77v.83h-2.16a15.94,15.94,0,0,1-.54,1.52v8h-.84v-6.39a13.59,13.59,0,0,1-2.59,3.13l-.53-.68a12.38,12.38,0,0,0,3.66-5.62h-3.1v-.83Zm.5,6.5-.72.5a24.75,24.75,0,0,0-2.33-3.32l.66-.42A25.74,25.74,0,0,1,409.17,455.21Z"/></g><path class="j" d="M374.59,462.28l2.62,3.78h0v-3.78h.53v4.65h-.54l-2.64-3.82h0v3.82H374v-4.65Z"/><path class="j" d="M380.68,462.28l1.82,4.65h-.58l-.49-1.3H379.3l-.5,1.3h-.57l1.83-4.65Zm.58,2.9-.88-2.32h0l-.89,2.32Z"/><path class="j" d="M383.53,462.28l2.63,3.78h0v-3.78h.53v4.65h-.55l-2.64-3.82h0v3.82H383v-4.65Z"/><path class="j" d="M388.2,462.28l2.63,3.78h0v-3.78h.53v4.65h-.54l-2.64-3.82h0v3.82h-.54v-4.65Z"/><path class="j" d="M395.61,462.28v.47h-2.76v1.55h2.6v.46h-2.6v1.7h2.87v.47h-3.4v-4.65Z"/><path class="j" d="M397,462.28v4.65h-.52v-4.65Z"/><path class="j" d="M398.53,462.28v2h2.69v-2h.53v4.65h-.53v-2.17h-2.69v2.17H398v-4.65Z"/><path class="j" d="M403.21,462.28v2.87a1.48,1.48,0,0,0,.31,1,1.28,1.28,0,0,0,1,.37,1.32,1.32,0,0,0,1-.37,1.53,1.53,0,0,0,.3-1v-2.87h.53v2.86a1.91,1.91,0,0,1-.46,1.39,2.22,2.22,0,0,1-2.77,0,2,2,0,0,1-.47-1.4v-2.86Z"/><path class="j" d="M409.3,462.28l1.82,4.65h-.58l-.49-1.3h-2.13l-.5,1.3h-.57l1.83-4.65Zm.58,2.9-.88-2.32h0l-.89,2.32Z"/><path class="j" d="M412.15,462.28l2.63,3.78h0v-3.78h.53v4.65h-.55l-2.64-3.82h0v3.82h-.53v-4.65Z"/><g class="h"><path d="M372.88,413.07l-.25-.87a14.22,14.22,0,0,0,2.7-5.26l.78.36a16.83,16.83,0,0,1-1.17,2.83V418h-.85v-6.48A17.94,17.94,0,0,1,372.88,413.07Zm6.2-4V407h.85V409h3.28v.84h-2.45a13,13,0,0,0,2.92,5.29l-.57.7a15,15,0,0,1-3-6h-.15v4.81h1.86v.82h-1.86V418h-.85v-2.47h-1.83v-.82h1.83v-4.81h-.14a13.51,13.51,0,0,1-3.12,6.14l-.44-.75a11.89,11.89,0,0,0,2.86-5.39H375.9V409Z"/><path d="M389.76,408.05a6.92,6.92,0,0,0-.5-.94l1-.16a11.72,11.72,0,0,1,.47,1.1h4.83v.82h-2.82a20.43,20.43,0,0,1,2.52,2.29l-.72.5q-.41-.46-.9-1c-2,.17-4.57.3-7.75.42l-.19-.75a1.77,1.77,0,0,0,.42-.12,15.67,15.67,0,0,0,1.84-1.38h-3.17v-.82ZM387.45,418h-.86V411.8h7.19v5a1,1,0,0,1-1.15,1.12h-1.22l-.23-.84,1.16,0c.37,0,.57-.17.57-.5V416h-5.46Zm-.33-7.6c2.3-.07,4.24-.18,5.85-.31-.29-.28-.6-.55-.94-.82l.6-.38H389A11.93,11.93,0,0,1,387.12,410.38Zm5.79,2.16h-5.46v1h5.46Zm-5.46,2.71h5.46v-.95h-5.46Z"/><path d="M397.13,412.29l-.55-.69a11.42,11.42,0,0,0,1.49-4.58l.85.15c-.1.67-.23,1.28-.37,1.85h2.06v.68a8.21,8.21,0,0,1-.91,1.83l-.61-.49a7.32,7.32,0,0,0,.65-1.22h-1.42A9.31,9.31,0,0,1,397.13,412.29Zm2-.9v5.23a7.65,7.65,0,0,0,1.5-1.1l.17.81a9.44,9.44,0,0,1-2.42,1.41L398,417a.54.54,0,0,0,.27-.48v-5.14Zm8.16-1h-.75v2.74H402.6v1.1h4.26V418h-.81v-.58H402.6V418h-.81v-7.58h-.71v-2.18h2.66a9.35,9.35,0,0,0-.47-1.18l.86-.14c.14.38.3.83.44,1.32h2.7Zm-.82-.29V409h-4.56v1.1Zm-.74,2.3v-1.55H402.6v1.55Zm-3.11,4.23h3.45V415H402.6Z"/></g><path class="j" d="M376.08,421.15v.46h-1.64v4.18h-.53v-4.18h-1.64v-.46Z"/><path class="j" d="M377.22,421.15v4.64h-.53v-4.64Z"/><path class="j" d="M378.4,421.15l1.48,2.27,1.47-2.27H382l-1.86,2.76v1.88h-.53v-1.88l-1.85-2.76Z"/><path class="j" d="M383,421.15V424a1.49,1.49,0,0,0,.31,1,1.28,1.28,0,0,0,1,.37,1.31,1.31,0,0,0,1-.37,1.49,1.49,0,0,0,.31-1v-2.87h.53V424a1.91,1.91,0,0,1-.46,1.39,1.88,1.88,0,0,1-1.39.48,1.84,1.84,0,0,1-1.38-.48,1.87,1.87,0,0,1-.47-1.39v-2.86Z"/><path class="j" d="M390.51,421.48a1.87,1.87,0,0,1,.61,1.16h-.54a1.32,1.32,0,0,0-.46-.81,1.58,1.58,0,0,0-1-.29,1.46,1.46,0,0,0-1.2.53,2.1,2.1,0,0,0-.44,1.42,2.06,2.06,0,0,0,.43,1.39,1.68,1.68,0,0,0,1.36.54,2.58,2.58,0,0,0,.73-.11,1.82,1.82,0,0,0,.58-.26v-1.18h-1.45v-.46h2v1.9a2.58,2.58,0,0,1-.81.42,3.81,3.81,0,0,1-1.08.15,2.12,2.12,0,0,1-1.71-.7,2.47,2.47,0,0,1-.57-1.69,2.58,2.58,0,0,1,.56-1.7,2,2,0,0,1,1.62-.73A2.15,2.15,0,0,1,390.51,421.48Z"/><path class="j" d="M392.53,421.15V424a1.49,1.49,0,0,0,.31,1,1.28,1.28,0,0,0,1,.37,1.32,1.32,0,0,0,1-.37,1.54,1.54,0,0,0,.3-1v-2.87h.54V424a1.92,1.92,0,0,1-.47,1.39,1.88,1.88,0,0,1-1.39.48,1.84,1.84,0,0,1-1.38-.48A1.92,1.92,0,0,1,392,424v-2.86Z"/><path class="j" d="M398.62,421.15l1.82,4.64h-.57l-.5-1.3h-2.13l-.49,1.3h-.58l1.83-4.64Zm.58,2.89-.88-2.32h0l-.89,2.32Z"/><path class="j" d="M401.47,421.15l2.63,3.78h0v-3.78h.53v4.64h-.55L401.46,422h0v3.81h-.53v-4.64Z"/><g class="h"><path d="M371.09,341a16.9,16.9,0,0,0,.16-2.17v-1h.88v.78A19.69,19.69,0,0,1,372,341h5v.84h-4.73a10.83,10.83,0,0,0,4.95,6.26l-.54.69a11.33,11.33,0,0,1-5-6.28,9.49,9.49,0,0,1-4.95,6.37l-.54-.72a8.66,8.66,0,0,0,4.76-6.32h-4.52V341Z"/><path d="M383.32,339l.14-1.2.88.12c0,.37-.07.73-.12,1.08H389v.82h-4.94c-.08.43-.16.82-.24,1.21h4.54v6.62c0,.75-.36,1.14-1.06,1.14h-1.18l-.23-.84,1.12,0a.45.45,0,0,0,.5-.51v-5.62h-7.67v7H379V341H383c.08-.41.17-.82.24-1.21h-4.85V339Zm-.27,4.73h1.26a13.06,13.06,0,0,0,.72-1.56l.8.28a12.68,12.68,0,0,1-.69,1.28h1.37v.75h-2.4v1.26h2.76v.77h-2.76v2.17h-.84V346.5h-2.75v-.77h2.75v-1.26h-2.36v-.75h1.32a7.09,7.09,0,0,0-.65-1.22l.77-.28A8.78,8.78,0,0,1,383.05,343.72Z"/><path d="M391.72,339.85v9h-.84v-9Zm2.39.08-.78.4a13.34,13.34,0,0,0-1.5-2.23l.79-.34A12.6,12.6,0,0,1,394.11,339.93Zm4.15,8.84L398,348l1.07,0c.35,0,.53-.23.53-.69v-8H395v-.79h5.45v9.05a1.07,1.07,0,0,1-1.19,1.23Z"/></g><path class="j" d="M367.83,352a2.09,2.09,0,0,1,1.66.64,2.43,2.43,0,0,1,.52,1.68,2.38,2.38,0,0,1-.56,1.68,2.14,2.14,0,0,1-1.67.64h-1.62V352Zm-1.13,4.18h1a1.81,1.81,0,0,0,1.37-.48,2,2,0,0,0,.43-1.38,2,2,0,0,0-.4-1.38,1.7,1.7,0,0,0-1.34-.48h-1Z"/><path class="j" d="M372.73,352l1.82,4.64H374l-.5-1.3h-2.13l-.49,1.3h-.58l1.83-4.64Zm.58,2.89-.87-2.32h0l-.89,2.32Z"/><path class="j" d="M375.58,352l2.63,3.78h0V352h.53v4.64h-.55l-2.64-3.81h0v3.81H375V352Z"/><path class="j" d="M381.67,352l1.83,4.64h-.58l-.49-1.3h-2.14l-.49,1.3h-.57l1.82-4.64Zm.59,2.89-.88-2.32h0l-.89,2.32Z"/><path class="j" d="M384.52,352l2.63,3.78h0V352h.53v4.64h-.54l-2.64-3.81h0v3.81H384V352Z"/><path class="j" d="M389.3,352l1.73,4h0l1.72-4h.67v4.64h-.54V353h0l-1.6,3.69h-.48L389.19,353h0v3.69h-.53V352Z"/><path class="j" d="M397.66,352v.46h-2.75V354h2.6v.47h-2.6v1.7h2.86v.46h-3.4V352Z"/><path class="j" d="M399.07,352l2.63,3.78h0V352h.53v4.64h-.55l-2.63-3.81h0v3.81h-.54V352Z"/><g class="h"><path d="M379.28,300.37v.84h-2v3.17h2.63v.83h-2.63v5.31h-.88v-5.31h-3.46a9.73,9.73,0,0,1-.7,3.07,4.84,4.84,0,0,1-2.26,2.34l-.47-.74a4.64,4.64,0,0,0,2-2.2,10,10,0,0,0,.51-2.47h-2.77v-.83h2.82c0-.15,0-.3,0-.42v-2.75h-2.18v-.84ZM373,304c0,.15,0,.29,0,.42h3.4v-3.17H373Z"/><path d="M385.56,299.93a13.42,13.42,0,0,1-1.61,2.83v7.91h-.86v-6.85a18.72,18.72,0,0,1-1.76,1.68l-.28-.9a13,13,0,0,0,3.71-5ZM388,310.45a1.12,1.12,0,0,1-1.26-1.27v-3.66c-.51.29-1,.55-1.55.81l-.38-.82c.67-.31,1.32-.64,1.93-1v-4.8h.86V304a17,17,0,0,0,3.31-2.87l.6.68A19.65,19.65,0,0,1,387.6,305v4.05c0,.37.19.56.6.56h1.94a.83.83,0,0,0,.7-.3,6.27,6.27,0,0,0,.26-2.07l.81.26a6.46,6.46,0,0,1-.44,2.51,1.38,1.38,0,0,1-1.18.43Z"/><path d="M399,299.61V301h4v.8h-4v1.63h4.91v.8H393.24v-.8h4.92v-1.63h-4V301h4v-1.42Zm1.53,6.09v-1h.85v1h2.18v.82H401.4v3a.94.94,0,0,1-1.08,1.05h-1.7l-.2-.83c.56,0,1.1.06,1.6.06s.53-.17.53-.49v-2.76h-6.81v-.82Zm-2.7,3.38-.72.51a16.19,16.19,0,0,0-1.9-2.22l.71-.43A17.21,17.21,0,0,1,397.85,309.08Z"/><path d="M407.89,299.9a9.31,9.31,0,0,1-2.65,3.6l-.25-.82a7.93,7.93,0,0,0,2.16-3.12Zm.27,3.1a9.37,9.37,0,0,1-1,1.84v5.77h-.78V305.8a9.67,9.67,0,0,1-1,1l-.25-.79a8.83,8.83,0,0,0,2.36-3.32Zm1.82,3.18V305h.83v1.18h1.74V307h-1.74v1.69c.71-.12,1.4-.26,2.09-.41V309c-1.49.36-3.09.65-4.8.89l-.21-.83c.71-.07,1.41-.17,2.09-.27V307h-1.69v-.77Zm0-4.8V299.8h.83v1.58h1.67v.77h-1.67v1.62h1.92v-.51h3.39v.79H415v5.41c0,.74-.32,1.11-.95,1.11h-1.42l-.18-.8c.46,0,.9.06,1.32.06.26,0,.39-.19.39-.58v-5.2h-1.36v.49h-4.67v-.77H410v-1.62h-1.63v-.77Zm5.93-.92v.78h-3v-.78Z"/></g><path class="j" d="M372.79,313.81l-2.1,2,2.39,2.65h-.71l-2.05-2.3-.72.68v1.62h-.54v-4.64h.54v2.41l2.49-2.41Z"/><path class="j" d="M375.53,313.81l1.82,4.64h-.58l-.49-1.3h-2.13l-.5,1.3h-.57l1.83-4.64Zm.58,2.9-.88-2.33h0l-.89,2.33Z"/><path class="j" d="M378.39,313.81v4.64h-.53v-4.64Z"/><path class="j" d="M379.89,313.81v2h2.69v-2h.53v4.64h-.53v-2.16h-2.69v2.16h-.53v-4.64Z"/><path class="j" d="M384.57,313.81v2.87a1.49,1.49,0,0,0,.31,1,1.28,1.28,0,0,0,1,.37,1.32,1.32,0,0,0,1-.37,1.54,1.54,0,0,0,.3-1v-2.87h.54v2.86a1.92,1.92,0,0,1-.47,1.39,1.86,1.86,0,0,1-1.39.48,1.84,1.84,0,0,1-1.38-.48,1.92,1.92,0,0,1-.47-1.39v-2.86Z"/><path class="j" d="M390.66,313.81l1.82,4.64h-.57l-.5-1.3h-2.13l-.49,1.3h-.58l1.83-4.64Zm.58,2.9-.88-2.33h0l-.89,2.33Z"/><path class="j" d="M395.75,314.08a1.55,1.55,0,0,1,.53,1.1h-.53a1.18,1.18,0,0,0-.39-.74,1.33,1.33,0,0,0-.87-.25,1.55,1.55,0,0,0-.81.17.63.63,0,0,0-.33.59.65.65,0,0,0,.4.57,5.67,5.67,0,0,0,.85.29,6.07,6.07,0,0,1,1.21.45,1.09,1.09,0,0,1,.57,1,1.13,1.13,0,0,1-.48,1,2.25,2.25,0,0,1-1.32.34,2,2,0,0,1-1.28-.35,1.62,1.62,0,0,1-.61-1.27h.53a1.28,1.28,0,0,0,.42.89,1.5,1.5,0,0,0,.94.26,1.83,1.83,0,0,0,.93-.21.68.68,0,0,0,.35-.59.76.76,0,0,0-.46-.68,5.58,5.58,0,0,0-1-.34,7.8,7.8,0,0,1-1.06-.38,1,1,0,0,1-.53-.89,1,1,0,0,1,.51-1,2.11,2.11,0,0,1,1.18-.31A2,2,0,0,1,395.75,314.08Z"/><path class="j" d="M397.63,313.81v4.64h-.53v-4.64Z"/><path class="j" d="M401,313.81V317a1.79,1.79,0,0,1-.31,1.15,1.67,1.67,0,0,1-2.13.07,1.46,1.46,0,0,1-.36-1.06V317h.53v.16c0,.62.28.94.85.94a.82.82,0,0,0,.68-.28,1.33,1.33,0,0,0,.21-.84v-3.14Z"/><path class="j" d="M402.53,313.81v4.64H402v-4.64Z"/><path class="j" d="M406.79,313.81v.46H404v1.56h2.6v.46H404V318h2.87v.46h-3.4v-4.64Z"/><g class="h"><path d="M383.06,267.79h-8.69v2.93a12.7,12.7,0,0,1-1.45,6.26l-.66-.57a11.82,11.82,0,0,0,1.25-5.69V267H378c-.15-.33-.3-.64-.46-.93l.93-.14c.14.32.27.68.4,1.07h4.23Zm-5.58.7a13.32,13.32,0,0,1-.7,1.89V277h-.86v-5a14.16,14.16,0,0,1-1,1.31l-.29-.94a11,11,0,0,0,2-3.95Zm3.67,1.73v-1.7H382v1.7h1.25v.84H382v4.69c0,.77-.37,1.16-1.09,1.16h-1.62l-.18-.84c.53,0,1,.06,1.5.06s.54-.2.54-.6v-4.47h-3.53v-.84Zm-1,4.07-.66.45a16.65,16.65,0,0,0-1.69-2.25l.66-.41A19,19,0,0,1,380.18,274.29Z"/><path d="M395.22,266.54v.84H391.6v1.83h2.93V277h-.86v-.54h-7.56V277h-.86v-7.74h2.85v-1.83h-3.57v-.84Zm-1.55,9v-1.9h-1.74a1,1,0,0,1-1.18-1.18V270H389v.24a4.72,4.72,0,0,1-2,4.15l-.67-.59a4,4,0,0,0,1.8-3.56V270h-2v5.56ZM389,269.21h1.8v-1.83H389Zm2.65,3.12a.49.49,0,0,0,.55.56h1.52V270H391.6Z"/><path d="M399.18,266.27a9.27,9.27,0,0,1-2.65,3.6l-.26-.81a8,8,0,0,0,2.16-3.12Zm.26,3.11a8.88,8.88,0,0,1-1,1.84V277h-.77v-4.81a9.87,9.87,0,0,1-1,1l-.25-.79a8.9,8.9,0,0,0,2.36-3.32Zm1.82,3.18v-1.19h.83v1.19h1.74v.77h-1.74V275c.71-.12,1.4-.27,2.09-.41v.77a46.86,46.86,0,0,1-4.8.88l-.2-.82c.7-.07,1.4-.17,2.08-.28v-1.83h-1.69v-.77Zm0-4.8v-1.58h.82v1.58h1.67v.77H402.1v1.62H404v-.52h3.4v.79h-1.14v5.41c0,.75-.33,1.12-1,1.12H403.9l-.18-.8c.46,0,.9.06,1.32.06.26,0,.4-.2.4-.58v-5.21h-1.37v.5H399.4v-.77h1.88v-1.62h-1.64v-.77Zm5.92-.92v.78h-3v-.78Z"/></g><path class="j" d="M375.45,280.19v.46h-2.57v1.56h2.44v.46h-2.44v2.16h-.53v-4.64Z"/><path class="j" d="M376.63,280.19v2.87a1.49,1.49,0,0,0,.31,1,1.28,1.28,0,0,0,1,.36,1.31,1.31,0,0,0,1-.36,1.49,1.49,0,0,0,.31-1v-2.87h.53v2.86a1.89,1.89,0,0,1-.46,1.38,2.22,2.22,0,0,1-2.77,0,1.89,1.89,0,0,1-.47-1.39v-2.86Z"/><path class="j" d="M381.08,280.19l1.26,1.81,1.26-1.81h.66l-1.6,2.23,1.72,2.41h-.66l-1.38-2-1.38,2h-.66l1.71-2.41-1.58-2.23Z"/><path class="j" d="M385.44,280.19v4.64h-.52v-4.64Z"/><path class="j" d="M388.85,280.19v3.16a1.76,1.76,0,0,1-.31,1.14,1.37,1.37,0,0,1-1.13.43,1.35,1.35,0,0,1-1-.36,1.42,1.42,0,0,1-.36-1.05v-.16h.53v.15c0,.63.28.95.85.95a.82.82,0,0,0,.68-.28,1.37,1.37,0,0,0,.21-.84v-3.14Z"/><path class="j" d="M390.34,280.19v4.64h-.52v-4.64Z"/><path class="j" d="M394.61,280.19v.46h-2.76v1.56h2.6v.46h-2.6v1.7h2.87v.46h-3.4v-4.64Z"/><g class="h"><path d="M378.27,229.47a19.09,19.09,0,0,1-1.69,3.62c.51-.1,1-.2,1.51-.34.22-.45.46-.92.7-1.42l.79.3a29.63,29.63,0,0,1-2.62,4.46,17.51,17.51,0,0,0,2.31-.72v.77a16.79,16.79,0,0,1-3.38.92l-.23-.79a1.42,1.42,0,0,0,.4-.24,14.25,14.25,0,0,0,1.59-2.45c-.62.15-1.26.28-1.88.4l-.23-.81a1,1,0,0,0,.37-.34,18.78,18.78,0,0,0,1.55-3.69Zm1,9a20.14,20.14,0,0,1-3.62,1.08l-.11-.84a19.35,19.35,0,0,0,3.73-1.05Zm.23-4.95v-.77h6.85v.77h-1v4.27l1-.17v.72l-1,.16v1.57h-.87v-1.44c-1.51.21-3.15.39-4.91.54l-.11-.76.93-.07V233.5Zm5.87-4V232h-4.91v-2.47Zm-4.1,4v1.05h3.25V233.5Zm3.25,2.79v-1h-3.25v1Zm0,1.6V237h-3.25v1.24C382.44,238.14,383.51,238,384.52,237.89Zm0-7.71h-3.25v1.11h3.25Z"/><path d="M393.05,229v.63h4.32v.72h-4.32v.84h4.86v.4a9.89,9.89,0,0,1-.43,1.66l-.79-.21a9.93,9.93,0,0,0,.37-1.09h-4.22v1.09l3.12-.37.12.7-3.24.39v.37c0,.33.22.5.66.5H396a.82.82,0,0,0,.52-.13c.15-.12.23-.43.28-1l.79.24c-.08.75-.24,1.2-.47,1.37a2,2,0,0,1-1,.19h-2.88c-.85,0-1.27-.35-1.27-1v-.45l-1.91.23-.1-.69,2-.24V232h-2.48v2.68a9.63,9.63,0,0,1-1.43,5.34l-.66-.58a9,9,0,0,0,1.24-4.73v-3.47h3.5V229Zm2.51,7v2.66c0,.24.14.37.41.37h.86a.75.75,0,0,0,.44-.1c.12-.08.24-.53.34-1.35l.77.25a4.26,4.26,0,0,1-.39,1.63,1.26,1.26,0,0,1-1,.34h-1.17c-.7,0-1-.34-1-1v-2h-2.5a4.06,4.06,0,0,1-.66,2.09,3.26,3.26,0,0,1-1.95,1.07l-.48-.67a3,3,0,0,0,1.83-1.05,4.06,4.06,0,0,0,.52-2.23Z"/><path d="M402.51,229.86v-.8h.87v.8h3.19v-.8h.86v.8h2.7v.76h-2.7v.71h-.86v-.71h-3.19v.71h-.87v-.71h-2.69v-.76Zm7.28,4.21H409v-1.51h-8v1.57h-.83v-2.3h9.64Zm-.67,6h-.82v-.5h-6.52v.5h-.84v-3.39h8.18Zm-.82-1.23v-1.44h-6.52v1.44Zm-.32-5.41v2.44h-6v-2.44Zm-.8.68h-4.37v1.1h4.37Z"/></g><path class="j" d="M377.88,243.2v3.16a1.79,1.79,0,0,1-.32,1.15,1.38,1.38,0,0,1-1.12.43,1.35,1.35,0,0,1-1-.36,1.43,1.43,0,0,1-.37-1.06v-.16h.54v.16c0,.62.28.94.84.94a.82.82,0,0,0,.68-.28,1.33,1.33,0,0,0,.21-.84V243.2Z"/><path class="j" d="M379.37,243.2v4.64h-.53V243.2Z"/><path class="j" d="M380.88,243.2v2h2.68v-2h.54v4.64h-.54v-2.16h-2.68v2.16h-.53V243.2Z"/><path class="j" d="M385.56,243.2v2.87a1.54,1.54,0,0,0,.3,1,1.58,1.58,0,0,0,2,0,1.54,1.54,0,0,0,.31-1V243.2h.53v2.86a2,2,0,0,1-.46,1.39,2.22,2.22,0,0,1-2.78,0,1.91,1.91,0,0,1-.46-1.39V243.2Z"/><path class="j" d="M389.87,243.2l1.48,2.27,1.48-2.27h.64L391.62,246v1.88h-.54V246l-1.85-2.76Z"/><path class="j" d="M394.54,243.2v4.64H394V243.2Z"/><path class="j" d="M396.07,243.2,398.7,247h0V243.2h.53v4.64h-.55L396.06,244h0v3.81h-.53V243.2Z"/><path class="j" d="M403.55,243.53a1.8,1.8,0,0,1,.61,1.16h-.53a1.27,1.27,0,0,0-.47-.8,1.7,1.7,0,0,0-2.2.23,2.1,2.1,0,0,0-.44,1.42,2.06,2.06,0,0,0,.43,1.39,1.7,1.7,0,0,0,1.37.54,2.46,2.46,0,0,0,.72-.11,1.88,1.88,0,0,0,.59-.26v-1.18h-1.46v-.46h2v1.9a2.39,2.39,0,0,1-.81.42,3.76,3.76,0,0,1-1.08.16,2.15,2.15,0,0,1-1.71-.71,2.85,2.85,0,0,1,0-3.39,2,2,0,0,1,1.62-.73A2.12,2.12,0,0,1,403.55,243.53Z"/><g class="h"><path d="M381.14,181.82a18.93,18.93,0,0,0,.16-2.18v-1h.88v.78a19.69,19.69,0,0,1-.15,2.37h5v.84h-4.72a10.79,10.79,0,0,0,5,6.26l-.54.69a11.36,11.36,0,0,1-5-6.28,9.53,9.53,0,0,1-5,6.37l-.54-.72a8.65,8.65,0,0,0,4.77-6.32h-4.53v-.84Z"/><path d="M392.61,178.7v10.88h-.89v-2a19.85,19.85,0,0,1-3.15,1.14l-.2-.85a16.56,16.56,0,0,0,3.35-1.15v-3.85h-3.17V182h3.17V178.7Zm3.16,10.77c-.76,0-1.13-.41-1.13-1.2V178.7h.87v4a13.21,13.21,0,0,0,3-1.59l.5.71a18.54,18.54,0,0,1-3.54,1.7v4.61c0,.33.15.51.45.51h1.5a.61.61,0,0,0,.57-.29,8.59,8.59,0,0,0,.21-2.14l.81.26a7.26,7.26,0,0,1-.38,2.56,1.21,1.21,0,0,1-1.07.43Z"/><path d="M401.77,180.65v9h-.84v-9Zm2.39.07-.78.41a13.34,13.34,0,0,0-1.5-2.23l.79-.35A14.09,14.09,0,0,1,404.16,180.72Zm4.15,8.84-.22-.8,1.07,0c.35,0,.52-.22.52-.68v-8h-4.6v-.79h5.44v9.05c0,.82-.39,1.22-1.18,1.22Z"/></g><path class="j" d="M377.88,192.83a2.09,2.09,0,0,1,1.66.64,2.47,2.47,0,0,1,.52,1.68,2.4,2.4,0,0,1-.56,1.68,2.18,2.18,0,0,1-1.68.64h-1.61v-4.64ZM376.74,197h1a1.81,1.81,0,0,0,1.37-.48,2.52,2.52,0,0,0,0-2.77,1.74,1.74,0,0,0-1.34-.47h-1.05Z"/><path class="j" d="M382.78,192.83l1.82,4.64H384l-.49-1.3H381.4l-.5,1.3h-.57l1.83-4.64Zm.58,2.89-.88-2.32h0l-.89,2.32Z"/><path class="j" d="M387.14,192.83a1.56,1.56,0,0,1,1,.31,1.05,1.05,0,0,1,.37.86,1.07,1.07,0,0,1-.21.67,1.15,1.15,0,0,1-.56.37,1.26,1.26,0,0,1,.71.38,1.11,1.11,0,0,1,.26.76,1.17,1.17,0,0,1-.48,1,2.05,2.05,0,0,1-1.13.28h-2.06v-4.64Zm-1.54,2H387a1.22,1.22,0,0,0,.75-.21.73.73,0,0,0,.25-.6.68.68,0,0,0-.25-.58,1.19,1.19,0,0,0-.74-.19H385.6Zm0,2.16h1.49a1.46,1.46,0,0,0,.77-.18.73.73,0,0,0,.34-.67.75.75,0,0,0-.3-.66,1.26,1.26,0,0,0-.81-.21H385.6Z"/><path class="j" d="M392.76,192.83v.46H390v1.55h2.6v.46H390V197h2.87v.46h-3.4v-4.64Z"/><path class="j" d="M394.18,192.83v4.64h-.53v-4.64Z"/><path class="j" d="M395.81,192.83l1.73,4h0l1.73-4H400v4.64h-.53v-3.69h0l-1.61,3.69h-.48l-1.61-3.69h0v3.69h-.53v-4.64Z"/><path class="j" d="M404.17,192.83v.46h-2.75v1.55H404v.46h-2.6V197h2.86v.46h-3.4v-4.64Z"/><path class="j" d="M405.58,192.83l2.63,3.77h0v-3.77h.53v4.64h-.54l-2.64-3.82h0v3.82H405v-4.64Z"/><g class="h"><path d="M377.42,137.44l-.62-.58a10.65,10.65,0,0,0,.74-4.16v-5.78h3.28v9.63c0,.55-.34.84-1,.84H379l-.2-.74.78,0c.31,0,.47-.13.47-.4v-2.93h-1.72A10.5,10.5,0,0,1,377.42,137.44ZM380,127.7h-1.71v2.06H380Zm-1.71,4.83H380v-2h-1.71Zm3.36-.75-.62-.55a9.34,9.34,0,0,0,1.16-4.17l.77.1a9.93,9.93,0,0,1-.18,1.56h1.44v-2.28h.84v2.28h2.3v.8h-2.3v2.9h2.28v.81h-2.28v3h2.65V137h-6.45v-.82h3v-3h-2.51v-.81h2.51v-2.9h-1.62A9.08,9.08,0,0,1,381.68,131.78Z"/><path d="M391.39,129.67V128a20.22,20.22,0,0,1-2.09.26l-.26-.8a17,17,0,0,0,4.89-1l.42.73a15.72,15.72,0,0,1-2.08.65v1.81h2.22v.82h-2.22V131c.74.65,1.51,1.38,2.3,2.21l-.52.77a26.36,26.36,0,0,0-1.78-2.09v5.5h-.88V132a12.06,12.06,0,0,1-2.27,3.17l-.38-1a9.29,9.29,0,0,0,2.65-3.69v0H389v-.82Zm4.95-2.11V135h-.86v-7.41Zm0,9.76-.18-.84c.57,0,1.12.05,1.65.05.35,0,.53-.21.53-.59v-9.48h.87v9.69c0,.77-.37,1.17-1.11,1.17Z"/><path d="M403.61,126.68a9.34,9.34,0,0,1-2.65,3.6l-.25-.82a8,8,0,0,0,2.15-3.12Zm.26,3.11a9.54,9.54,0,0,1-1,1.83v5.77h-.78v-4.81a11,11,0,0,1-1,1l-.25-.8a8.83,8.83,0,0,0,2.36-3.32Zm1.82,3.17v-1.18h.83V133h1.74v.77h-1.74v1.69c.71-.12,1.4-.26,2.09-.4v.76c-1.49.36-3.08.65-4.8.89l-.2-.83c.7-.07,1.4-.17,2.08-.27v-1.84H404V133Zm0-4.79v-1.59h.82v1.59h1.67v.76h-1.67v1.62h1.92V130h3.4v.79h-1.14v5.41c0,.74-.33,1.11-1,1.11h-1.42l-.18-.8q.69.06,1.32.06c.27,0,.4-.19.4-.57v-5.21H408.5v.49h-4.66v-.77h1.87v-1.62h-1.63v-.76Zm5.92-.93V128h-3v-.78Z"/></g><path class="j" d="M379.57,140.86a1.56,1.56,0,0,1,.54,1.11h-.53a1.18,1.18,0,0,0-.39-.75,1.36,1.36,0,0,0-.88-.25,1.51,1.51,0,0,0-.8.17.64.64,0,0,0,.06,1.16,6.16,6.16,0,0,0,.85.29,5.82,5.82,0,0,1,1.21.45,1.1,1.1,0,0,1,.58,1,1.11,1.11,0,0,1-.49,1,2.21,2.21,0,0,1-1.31.35,2.13,2.13,0,0,1-1.29-.35,1.68,1.68,0,0,1-.6-1.28H377a1.26,1.26,0,0,0,.43.89,1.46,1.46,0,0,0,.94.26,1.77,1.77,0,0,0,.92-.21.65.65,0,0,0,.35-.59.74.74,0,0,0-.46-.68,5.36,5.36,0,0,0-1-.34,10,10,0,0,1-1.07-.37,1,1,0,0,1-.53-.9,1.06,1.06,0,0,1,.51-.94,2.09,2.09,0,0,1,1.19-.32A1.92,1.92,0,0,1,379.57,140.86Z"/><path class="j" d="M381.42,140.59v2h2.68v-2h.54v4.65h-.54v-2.17h-2.68v2.17h-.53v-4.65Z"/><path class="j" d="M388.85,140.59v.47H386.1v1.55h2.6v.46h-2.6v1.7H389v.47h-3.4v-4.65Z"/><path class="j" d="M390.26,140.59l2.63,3.78h0v-3.78h.53v4.65h-.54l-2.64-3.82h0v3.82h-.53v-4.65Z"/><path class="j" d="M397.75,140.93a1.84,1.84,0,0,1,.61,1.15h-.54a1.29,1.29,0,0,0-.46-.8,1.59,1.59,0,0,0-1-.3,1.46,1.46,0,0,0-1.2.53,2.13,2.13,0,0,0-.44,1.43,2.05,2.05,0,0,0,.43,1.38,1.68,1.68,0,0,0,1.36.54,2.53,2.53,0,0,0,.73-.11,2.07,2.07,0,0,0,.58-.25v-1.19h-1.45v-.46h2v1.9a2.39,2.39,0,0,1-.81.42,3.49,3.49,0,0,1-1.08.16,2.12,2.12,0,0,1-1.71-.71,2.46,2.46,0,0,1-.57-1.68,2.61,2.61,0,0,1,.56-1.71,2,2,0,0,1,1.62-.73A2.1,2.1,0,0,1,397.75,140.93Z"/><path class="j" d="M399.77,140.59v4.18h2.68v.47h-3.21v-4.65Z"/><path class="j" d="M403.63,140.59v4.65h-.53v-4.65Z"/><path class="j" d="M407,140.59v3.16a1.79,1.79,0,0,1-.31,1.15,1.38,1.38,0,0,1-1.12.43,1.35,1.35,0,0,1-1-.36,1.42,1.42,0,0,1-.37-1.05v-.17h.54v.16c0,.62.28.94.84.94a.82.82,0,0,0,.68-.28,1.33,1.33,0,0,0,.21-.84v-3.14Z"/><path class="j" d="M408.53,140.59v4.65H408v-4.65Z"/><path class="j" d="M412.79,140.59v.47H410v1.55h2.6v.46H410v1.7h2.86v.47h-3.39v-4.65Z"/><g class="h"><path d="M383.43,87.12l-.61.63A13.62,13.62,0,0,0,381,86l.61-.6A15.39,15.39,0,0,1,383.43,87.12Zm.12,1.73A42.06,42.06,0,0,1,382,93.18l-.79-.35a40,40,0,0,0,1.61-4.28Zm.14-4.8-.61.62a10.86,10.86,0,0,0-1.83-1.59l.62-.59A13.37,13.37,0,0,1,383.69,84.05Zm1.34.36v8.91h-.86V84.41Zm1.82-.56-.6.6a11.57,11.57,0,0,0-1.73-1.58l.6-.59A12.3,12.3,0,0,1,386.85,83.85Zm2.58,1.4v5.93H386V85.25Zm-.79,2.56V86h-1.79v1.8Zm0,.72h-1.79v1.88h1.79Zm.56,4.78-.2-.78,1,0c.27,0,.42-.19.42-.58V83.66h-3.09v-.84h3.95v9.4a1,1,0,0,1-1.11,1.09Z"/><path d="M395.43,87.24l-.61.63a11.36,11.36,0,0,0-2-1.75l.62-.59A13.59,13.59,0,0,1,395.43,87.24Zm.16,1.8a37.65,37.65,0,0,1-1.74,4.27l-.87-.37a37.06,37.06,0,0,0,1.83-4.2Zm.21-4.66-.62.61a13.59,13.59,0,0,0-2.1-1.8l.61-.6A14.6,14.6,0,0,1,395.8,84.38Zm7.93-1.33v.84h-.93v8.24a1,1,0,0,1-1.13,1.16h-1.93l-.19-.83c.63,0,1.24.06,1.82.06.38,0,.57-.2.57-.61v-8h-5.86v-.84Zm-3.36,2.67v4.41h-3.76V85.72Zm-.8.78h-2.15v2.84h2.15Z"/></g><path class="j" d="M383.18,96.49v3.16a1.79,1.79,0,0,1-.32,1.15,1.38,1.38,0,0,1-1.12.43,1.35,1.35,0,0,1-1-.36,1.41,1.41,0,0,1-.36-1.05v-.17h.53v.16c0,.62.28.94.84.94a.85.85,0,0,0,.69-.28,1.4,1.4,0,0,0,.2-.84V96.49Z"/><path class="j" d="M384.67,96.49v4.64h-.53V96.49Z"/><path class="j" d="M387.62,96.49l1.83,4.64h-.58l-.49-1.3h-2.14l-.49,1.3h-.57L387,96.49Zm.59,2.9-.88-2.32h0l-.89,2.32Z"/><path class="j" d="M390.48,96.49l2.62,3.78h0V96.49h.53v4.64h-.54l-2.64-3.81h0v3.81h-.53V96.49Z"/><path class="j" d="M395.12,96.49v2h2.69v-2h.53v4.64h-.53V99h-2.69v2.16h-.53V96.49Z"/><path class="j" d="M402.56,96.49V97H399.8v1.55h2.6V99h-2.6v1.7h2.87v.46h-3.4V96.49Z"/><path class="m" d="M38.11,28.48a3.12,3.12,0,0,1,1,2.41A3.88,3.88,0,0,1,38,33.58a15.34,15.34,0,0,1-2.36,1.84c-1.46,1-2.29,1.86-2.5,2.63h6v1.17H31.53a4.12,4.12,0,0,1,1.14-2.84,13.81,13.81,0,0,1,2.48-2,13.58,13.58,0,0,0,1.79-1.42,3,3,0,0,0,.88-2.05,2.07,2.07,0,0,0-.62-1.62,2.53,2.53,0,0,0-1.75-.57,2.1,2.1,0,0,0-1.8.8,3.48,3.48,0,0,0-.71,2.28H31.63a4.31,4.31,0,0,1,1.07-3.05,3.64,3.64,0,0,1,2.8-1.16A3.78,3.78,0,0,1,38.11,28.48Z"/><path class="m" d="M48,29.37a8.05,8.05,0,0,1,.91,4.13A8,8,0,0,1,48,37.63a3.54,3.54,0,0,1-6.18,0,8,8,0,0,1-.91-4.13,8.05,8.05,0,0,1,.91-4.13,3.54,3.54,0,0,1,6.18,0Zm-5.3,1a8.48,8.48,0,0,0-.48,3.17,8.55,8.55,0,0,0,.48,3.17,2.31,2.31,0,0,0,4.42,0,8.51,8.51,0,0,0,.5-3.17,8.43,8.43,0,0,0-.5-3.17,2.31,2.31,0,0,0-4.42,0Z"/><path class="m" d="M57.31,28.48a3.12,3.12,0,0,1,1,2.41,3.91,3.91,0,0,1-1.12,2.69,16.12,16.12,0,0,1-2.37,1.84c-1.46,1-2.29,1.86-2.5,2.63h6v1.17H50.73a4.12,4.12,0,0,1,1.14-2.84,13.81,13.81,0,0,1,2.48-2,13.58,13.58,0,0,0,1.79-1.42A3,3,0,0,0,57,30.88a2.07,2.07,0,0,0-.62-1.62,2.53,2.53,0,0,0-1.75-.57,2.1,2.1,0,0,0-1.8.8,3.48,3.48,0,0,0-.71,2.28H50.83a4.31,4.31,0,0,1,1.07-3.05,3.64,3.64,0,0,1,2.8-1.16A3.78,3.78,0,0,1,57.31,28.48Z"/><path class="m" d="M67.23,29.37a8.05,8.05,0,0,1,.91,4.13,8,8,0,0,1-.91,4.13,3.54,3.54,0,0,1-6.18,0,8,8,0,0,1-.91-4.13,8.05,8.05,0,0,1,.91-4.13,3.54,3.54,0,0,1,6.18,0Zm-5.3,1a8.48,8.48,0,0,0-.48,3.17,8.55,8.55,0,0,0,.48,3.17,2.31,2.31,0,0,0,4.42,0,8.51,8.51,0,0,0,.5-3.17,8.43,8.43,0,0,0-.5-3.17,2.31,2.31,0,0,0-4.42,0Z"/><path class="m" d="M70.44,31.9l-.76-1A8.87,8.87,0,0,0,72.94,26l1.2.22a13.74,13.74,0,0,1-.61,1.71h9.94v1.12h-5v2.56h4.46v1.11H78.45v3.46H84V37.3H78.45v3.57H77.28V37.3h-7.4V36.18h2.65V31.61h4.75V29.05H73A9.5,9.5,0,0,1,70.44,31.9Zm6.84,4.28V32.72h-3.6v3.46Z"/><path class="m" d="M89.65,27.79V39.22H88.33V29.39A6,6,0,0,1,85.64,31V29.65a6.85,6.85,0,0,0,1.6-.69,6.7,6.7,0,0,0,1.38-1.17Z"/><path class="m" d="M98.93,28.48a3.11,3.11,0,0,1,1,2.41,3.86,3.86,0,0,1-1.12,2.69,15.57,15.57,0,0,1-2.37,1.84c-1.45,1-2.29,1.86-2.49,2.63h6v1.17H92.35a4.15,4.15,0,0,1,1.13-2.84,14,14,0,0,1,2.49-2,15.15,15.15,0,0,0,1.79-1.42,3,3,0,0,0,.88-2.05A2.07,2.07,0,0,0,98,29.26a2.48,2.48,0,0,0-1.74-.57,2.13,2.13,0,0,0-1.81.8,3.43,3.43,0,0,0-.7,2.28H92.44a4.27,4.27,0,0,1,1.08-3.05,3.63,3.63,0,0,1,2.8-1.16A3.8,3.8,0,0,1,98.93,28.48Z"/><path class="m" d="M104.06,40.87l-.88-.8a9.31,9.31,0,0,0,1.62-5.48V26.78H114V39.3a1.21,1.21,0,0,1-1.36,1.37h-2.07l-.32-1.13c.74,0,1.41.06,2,.06.37,0,.56-.24.56-.7V35.71h-6.9A9.77,9.77,0,0,1,104.06,40.87Zm8.74-13H106v2.81h6.83ZM106,34.64h6.83V31.76H106Z"/><path class="m" d="M124.53,28.48a3.11,3.11,0,0,1,1,2.41,3.86,3.86,0,0,1-1.12,2.69,15.57,15.57,0,0,1-2.37,1.84c-1.46,1-2.29,1.86-2.5,2.63h6v1.17H118a4.15,4.15,0,0,1,1.13-2.84,14.19,14.19,0,0,1,2.48-2,14.65,14.65,0,0,0,1.8-1.42,3,3,0,0,0,.88-2.05,2.07,2.07,0,0,0-.63-1.62,2.48,2.48,0,0,0-1.74-.57,2.13,2.13,0,0,0-1.81.8,3.43,3.43,0,0,0-.7,2.28H118a4.27,4.27,0,0,1,1.08-3.05,3.61,3.61,0,0,1,2.8-1.16A3.8,3.8,0,0,1,124.53,28.48Z"/><path class="m" d="M135.17,30.62h-1.3a2.17,2.17,0,0,0-2.37-1.95A2.32,2.32,0,0,0,129.39,30a6,6,0,0,0-.75,3.2c0,.06,0,.21,0,.42h.07A3,3,0,0,1,130,32.24a3.11,3.11,0,0,1,1.77-.5,3.5,3.5,0,0,1,2.65,1.06,4.18,4.18,0,0,1-.1,5.52,3.75,3.75,0,0,1-2.77,1.12,3.59,3.59,0,0,1-3.14-1.55,7.16,7.16,0,0,1-1-4.08,8.19,8.19,0,0,1,1.07-4.45,3.48,3.48,0,0,1,3.08-1.8A3.29,3.29,0,0,1,135.17,30.62Zm-5.57,3a2.65,2.65,0,0,0-.74,1.95,2.75,2.75,0,0,0,.7,2,2.43,2.43,0,0,0,1.91.82,2.47,2.47,0,0,0,1.87-.79,2.93,2.93,0,0,0,.72-2,2.68,2.68,0,0,0-.7-1.94,2.46,2.46,0,0,0-1.89-.75A2.5,2.5,0,0,0,129.6,33.6Z"/><path class="m" d="M149.26,40.74h-1.17V39.52h-7.57v1.23h-1.15v-14h9.89Zm-1.17-8.28V27.9h-7.57v4.56Zm0,5.94V33.58h-7.57V38.4Z"/><path class="m" d="M155.13,33.89a21.62,21.62,0,0,1-.24,2.61,5.68,5.68,0,0,0,1.67,2V32.73h-3.29v-1h2.93V29.33h-2.64V28.27h2.64V26.11h1.16v2.16h2.56v1.06h-2.56v2.35h2.77v1h-2.47V35h2.27v1.06h-2.27v3a27.14,27.14,0,0,0,5.89.41c1.78,0,3.11,0,4-.08l-.19,1.12h-3.52c-3.75,0-6.1-.22-7-.65a5.19,5.19,0,0,1-2.14-2,16.76,16.76,0,0,1-1,3l-.88-.79a17.21,17.21,0,0,0,1.33-6.27Zm11.53,3.42a1.63,1.63,0,0,1-1.49.59h-2.85A1.21,1.21,0,0,1,161,36.53v-5.2h4.35V28.24h-4.62V27.16h5.74v5.27h-4.32v3.68a.6.6,0,0,0,.67.67H165a.88.88,0,0,0,.9-.51,8.27,8.27,0,0,0,.25-1.85l1.09.36A6.24,6.24,0,0,1,166.66,37.31Z"/><path d="M74.92,1052.18a30,30,0,0,0,.19-3.34v-1h1.55v.71a32.88,32.88,0,0,1-.21,3.68h8.84v1.47H76.85a20.56,20.56,0,0,0,8.9,12.07l-.94,1.22a21.32,21.32,0,0,1-8.88-11.76,19.68,19.68,0,0,1-2.5,6.07,36.69,36.69,0,0,1,3.61,4L76,1066.31a39.3,39.3,0,0,0-3.34-3.93,17.4,17.4,0,0,1-5.4,4.54l-.94-1.26c4.62-2.36,7.43-6.35,8.42-12H66.79v-1.47Z"/><path d="M97.28,1052a11.53,11.53,0,0,0,.46-2H90.56v6.71a23.79,23.79,0,0,1-2,10.15l-1.14-1a22.2,22.2,0,0,0,1.64-9.14v-8.21h17.09v1.5H99.26a15.49,15.49,0,0,1-.51,2h5.84v8H99.72v5.21a1.49,1.49,0,0,1-1.7,1.65H95.9l-.32-1.49a18.37,18.37,0,0,0,1.91.11c.46,0,.72-.21.72-.63V1060H92.89v-8Zm-1.55,9.64a20.4,20.4,0,0,1-3.36,4.64l-1.26-.89a17.55,17.55,0,0,0,3.3-4.38Zm7.39-6.3v-2H94.36v2Zm0,1.3H94.36v2h8.76Zm3.15,8.86-1.26.86a34.35,34.35,0,0,0-3.3-4.62l1.22-.76A38.44,38.44,0,0,1,106.27,1065.51Z"/><path d="M114.9,1062.17a37.55,37.55,0,0,1-6.23,2.25l-.38-1.51c.88-.19,1.76-.42,2.64-.68v-7.47h-2.39v-1.47h2.39v-5.42h1.49v5.42h2.19v1.47h-2.19v7c.84-.32,1.68-.67,2.48-1Zm11.7-2.67c-.21.89-1.12,1.35-2.69,1.35h-.13l-.42-1.49c.32,0,.61,0,.86,0a1,1,0,0,0,1-.69,39,39,0,0,0,.19-5l-3.06.92v7.94h-1.47v-7.49l-3.07.92v8.15c0,.63.36,1,1.09,1h5.9a1,1,0,0,0,.93-.42,8,8,0,0,0,.48-3.06l1.41.44c-.15,2.12-.42,3.4-.84,3.86a2.19,2.19,0,0,1-1.7.61h-6.64a1.86,1.86,0,0,1-2.1-2.1v-8l-1.76.55v-1.47l1.76-.55v-5.16h1.47v4.7l3.07-1v-5.9h1.47v5.44l4.51-1.38A52.45,52.45,0,0,1,126.6,1059.5Z"/><path d="M133.51,1048q-.25,1.07-.57,2h3.78v1.45h-4.28a24.46,24.46,0,0,1-1.87,3.84l-1.24-.78a22.19,22.19,0,0,0,2.71-6.84Zm2.81,6.28v1.36h-2.06v2.59h2.82v1.38h-2.82v4.87a16.11,16.11,0,0,0,2.88-1.34l.27,1.34a20.58,20.58,0,0,1-4.68,1.85l-.61-1.26c.44-.15.68-.38.68-.67v-4.79H130v-1.38h2.78v-2.59h-1.43v-1.36Zm2.31,1.66-1.32-.82a23.8,23.8,0,0,0,2.12-6.26l1.41.3c-.17.79-.36,1.57-.55,2.28h2.08v-3.71h1.47v3.71h3.78V1053h-3.78v1c0,1.13-.09,2.18-.19,3.15h4.66v1.45h-4.22a10.74,10.74,0,0,0,4.64,7.2l-.84,1.34a12.36,12.36,0,0,1-4.76-6.93,15.9,15.9,0,0,1-.78,2.33,10,10,0,0,1-4.54,4.64l-.84-1.3a9.25,9.25,0,0,0,4.22-4.41,15.17,15.17,0,0,0,.78-2.87H137.6v-1.45h4.58c.11-1,.17-2.06.19-3.15v-1h-2.52A30.81,30.81,0,0,1,138.63,1056Z"/><path d="M102.46,1098.71a4.09,4.09,0,0,1,1.35,3.17,5.14,5.14,0,0,1-1.47,3.53,21.51,21.51,0,0,1-3.11,2.41c-1.91,1.28-3,2.44-3.27,3.45h7.87v1.53h-10a5.4,5.4,0,0,1,1.49-3.72,17.73,17.73,0,0,1,3.25-2.66,18.27,18.27,0,0,0,2.35-1.87,3.91,3.91,0,0,0,1.16-2.69,2.74,2.74,0,0,0-.82-2.12A3.31,3.31,0,0,0,99,1099a2.8,2.8,0,0,0-2.37,1,4.58,4.58,0,0,0-.93,3H94a5.62,5.62,0,0,1,1.41-4,4.75,4.75,0,0,1,3.67-1.52A4.94,4.94,0,0,1,102.46,1098.71Z"/><path d="M106.18,1105.33v-1.45h18.88v1.45H112.52l-.71,2.45h10.27c-.13,3.36-.47,5.38-1,6a3.57,3.57,0,0,1-2.9.94c-1,0-2,0-2.79-.12l-.5-1.39c1.11.09,2.1.13,3,.13,1.13,0,1.82-.23,2.1-.7a11,11,0,0,0,.56-3.52H110l1-3.82Zm15.6-8.93v5.67h-12.3v-5.67Zm-1.55,1.37H111v2.94h9.2Z"/><path d="M132.2,1096.11a35.22,35.22,0,0,1-3.25,6.55c.94-.08,1.89-.21,2.83-.36.38-.75.8-1.55,1.22-2.39l1.34.5a46.62,46.62,0,0,1-4.62,7.56,34.19,34.19,0,0,0,4.54-1.2v1.37a36.78,36.78,0,0,1-6.32,1.49l-.42-1.39a2.63,2.63,0,0,0,.69-.44,20.76,20.76,0,0,0,2.81-4.13l-3.5.46-.36-1.39a1.37,1.37,0,0,0,.63-.54,35.69,35.69,0,0,0,3-6.66Zm2.29,16.06a38.45,38.45,0,0,1-7.06,1.93l-.18-1.47a36.62,36.62,0,0,0,7.24-1.91Zm10.39-11.42-5.39.75c0,1,.1,2,.18,2.86l5.57-.88.23,1.43-5.63.88c0,.38.11.75.17,1.09a19.58,19.58,0,0,0,.76,2.88,19.34,19.34,0,0,0,3-3.57l1.2.81a22,22,0,0,1-3.61,4.14c.08.13.14.27.23.4.69,1,1.3,1.55,1.84,1.55s1-1.13,1.41-3.38l1.28.84c-.59,2.78-1.43,4.18-2.52,4.18a3.83,3.83,0,0,1-2.85-1.93,4.25,4.25,0,0,1-.49-.78,16.19,16.19,0,0,1-5,2.56l-.89-1.21a17.82,17.82,0,0,0,5.23-2.67,16.53,16.53,0,0,1-1-3.07c-.13-.54-.21-1.07-.3-1.61l-3.78.61-.21-1.43,3.8-.61c-.1-.9-.16-1.87-.19-2.88l-3,.45-.23-1.39,3.21-.46v-4.66h1.51v4.45l5.23-.74Zm-.61-2.56-1.17.82a18.25,18.25,0,0,0-2.48-2.69l1.18-.74A25,25,0,0,1,144.27,1098.19Z"/><path class="n" d="M100.07,1129.26a11,11,0,0,1-.25,1.42h5.87v1h-5.27a9.11,9.11,0,0,0,5.53,3.42l-.54.88a9.59,9.59,0,0,1-5.94-4.22,6.23,6.23,0,0,1-1.22,1.94,9.94,9.94,0,0,1-4.72,2.32l-.41-.92a9,9,0,0,0,4.33-2,4.93,4.93,0,0,0,1-1.37h-5v-1h5.37a11.87,11.87,0,0,0,.29-1.42Zm-2.82-4.58a9.22,9.22,0,0,1-2.94,3.84l-.78-.68a8.15,8.15,0,0,0,2.8-3.52Zm2.82-1.38v5.41H99v-5.41Zm5.39,4.62-.85.6a29.26,29.26,0,0,0-2.92-4l.79-.49A33.46,33.46,0,0,1,105.46,1127.92Z"/><path class="n" d="M118,1126.59v5.07H114v1.26h5.7v.91H114V1136h-1v-2.17h-5.68v-.91H113v-1.26h-3.9v-5.07Zm-7.29-2.37v-1.06h1v1.06h3.73v-1.06h1v1.06h3.21v.91h-3.21v1.1h-1v-1.1h-3.73v1.1h-1v-1.1h-3.21v-.91Zm6.34,4.44v-1.2h-6.93v1.2Zm0,.84h-6.93v1.29H117Z"/><path class="n" d="M122.9,1126.86v-3.67h1v3.67h1.65v1h-1.65v4.65a16.9,16.9,0,0,0,1.71-.68v1a28.94,28.94,0,0,1-4.33,1.46l-.25-1c.63-.14,1.24-.29,1.86-.46v-5h-1.74v-1Zm10.67-3.06v1h-3.31V1130H134v1h-3.73v5h-1v-5h-3.68v-1h3.68v-5.29H126v-1Zm-5.44,5.32-.87.21a26.4,26.4,0,0,0-1-3.51l.87-.28A28.81,28.81,0,0,1,128.13,1129.12Zm5.08-3.43a18.33,18.33,0,0,1-1.12,3.57l-.85-.3a18,18,0,0,0,1.09-3.5Z"/><path class="n" d="M147,1130.47v1H139.9v-1Z"/><path class="n" d="M165.58,1123.73v1h-4.23v2.15h3.42v9h-1v-.63h-8.83v.63h-1v-9h3.34v-2.15h-4.18v-1Zm-1.82,10.58v-2.23h-2a1.21,1.21,0,0,1-1.38-1.37v-2.9h-2.1v.28a5.55,5.55,0,0,1-2.31,4.85l-.78-.69a4.66,4.66,0,0,0,2.1-4.16v-.28h-2.33v6.5Zm-5.51-7.45h2.1v-2.15h-2.1Zm3.1,3.64a.58.58,0,0,0,.64.66h1.77v-3.35h-2.41Z"/><path class="n" d="M172.46,1124.94l-.29-.89a18.14,18.14,0,0,0,6.13-.89l.48.82a13.28,13.28,0,0,1-3,.75,13.79,13.79,0,0,1-.42,1.71h4v1H177a6.34,6.34,0,0,0,2.79,2.75l-.44.88a7.68,7.68,0,0,1-3.3-3.63H175c-.11.27-.24.52-.36.76a8.46,8.46,0,0,1-1.07,1.43h.68v1.26A7,7,0,0,1,172,1136l-.78-.67a5.9,5.9,0,0,0,2.1-4.45v-1a11,11,0,0,1-1.42,1.15l-.56-.74-.29.43c-.48-.81-.87-1.46-1.2-2v7.17h-1v-6.86a18.27,18.27,0,0,1-1.6,3.61l-.44-1.08a13.91,13.91,0,0,0,2-4.76H167.1v-1h1.74v-2.74h1v2.74h1.51v1h-1.51v.83c.57.67,1.16,1.41,1.75,2.24l-.17.25a7.45,7.45,0,0,0,2.45-2.49,1.74,1.74,0,0,1,.14-.27h-2.26v-1h2.67a12.9,12.9,0,0,0,.39-1.6C174.06,1124.89,173.27,1124.94,172.46,1124.94Zm4.95,4.65V1136h-1v-6.37Z"/><line class="o" x1="65.53" y1="1092.63" x2="65.53" y2="1138.54"/><path class="j" d="M38.11,28.48a3.12,3.12,0,0,1,1,2.41A3.88,3.88,0,0,1,38,33.58a15.34,15.34,0,0,1-2.36,1.84c-1.46,1-2.29,1.86-2.5,2.63h6v1.17H31.53a4.12,4.12,0,0,1,1.14-2.84,13.81,13.81,0,0,1,2.48-2,13.58,13.58,0,0,0,1.79-1.42,3,3,0,0,0,.88-2.05,2.07,2.07,0,0,0-.62-1.62,2.53,2.53,0,0,0-1.75-.57,2.1,2.1,0,0,0-1.8.8,3.48,3.48,0,0,0-.71,2.28H31.63a4.31,4.31,0,0,1,1.07-3.05,3.64,3.64,0,0,1,2.8-1.16A3.78,3.78,0,0,1,38.11,28.48Z"/><path class="j" d="M48,29.37a8.05,8.05,0,0,1,.91,4.13A8,8,0,0,1,48,37.63a3.54,3.54,0,0,1-6.18,0,8,8,0,0,1-.91-4.13,8.05,8.05,0,0,1,.91-4.13,3.54,3.54,0,0,1,6.18,0Zm-5.3,1a8.48,8.48,0,0,0-.48,3.17,8.55,8.55,0,0,0,.48,3.17,2.31,2.31,0,0,0,4.42,0,8.51,8.51,0,0,0,.5-3.17,8.43,8.43,0,0,0-.5-3.17,2.31,2.31,0,0,0-4.42,0Z"/><path class="j" d="M57.31,28.48a3.12,3.12,0,0,1,1,2.41,3.91,3.91,0,0,1-1.12,2.69,16.12,16.12,0,0,1-2.37,1.84c-1.46,1-2.29,1.86-2.5,2.63h6v1.17H50.73a4.12,4.12,0,0,1,1.14-2.84,13.81,13.81,0,0,1,2.48-2,13.58,13.58,0,0,0,1.79-1.42A3,3,0,0,0,57,30.88a2.07,2.07,0,0,0-.62-1.62,2.53,2.53,0,0,0-1.75-.57,2.1,2.1,0,0,0-1.8.8,3.48,3.48,0,0,0-.71,2.28H50.83a4.31,4.31,0,0,1,1.07-3.05,3.64,3.64,0,0,1,2.8-1.16A3.78,3.78,0,0,1,57.31,28.48Z"/><path class="j" d="M67.23,29.37a8.05,8.05,0,0,1,.91,4.13,8,8,0,0,1-.91,4.13,3.54,3.54,0,0,1-6.18,0,8,8,0,0,1-.91-4.13,8.05,8.05,0,0,1,.91-4.13,3.54,3.54,0,0,1,6.18,0Zm-5.3,1a8.48,8.48,0,0,0-.48,3.17,8.55,8.55,0,0,0,.48,3.17,2.31,2.31,0,0,0,4.42,0,8.51,8.51,0,0,0,.5-3.17,8.43,8.43,0,0,0-.5-3.17,2.31,2.31,0,0,0-4.42,0Z"/><path class="j" d="M70.44,31.9l-.76-1A8.87,8.87,0,0,0,72.94,26l1.2.22a13.74,13.74,0,0,1-.61,1.71h9.94v1.12h-5v2.56h4.46v1.11H78.45v3.46H84V37.3H78.45v3.57H77.28V37.3h-7.4V36.18h2.65V31.61h4.75V29.05H73A9.5,9.5,0,0,1,70.44,31.9Zm6.84,4.28V32.72h-3.6v3.46Z"/><path class="j" d="M89.65,27.79V39.22H88.33V29.39A6,6,0,0,1,85.64,31V29.65a6.85,6.85,0,0,0,1.6-.69,6.7,6.7,0,0,0,1.38-1.17Z"/><path class="j" d="M98.93,28.48a3.11,3.11,0,0,1,1,2.41,3.86,3.86,0,0,1-1.12,2.69,15.57,15.57,0,0,1-2.37,1.84c-1.45,1-2.29,1.86-2.49,2.63h6v1.17H92.35a4.15,4.15,0,0,1,1.13-2.84,14,14,0,0,1,2.49-2,15.15,15.15,0,0,0,1.79-1.42,3,3,0,0,0,.88-2.05A2.07,2.07,0,0,0,98,29.26a2.48,2.48,0,0,0-1.74-.57,2.13,2.13,0,0,0-1.81.8,3.43,3.43,0,0,0-.7,2.28H92.44a4.27,4.27,0,0,1,1.08-3.05,3.63,3.63,0,0,1,2.8-1.16A3.8,3.8,0,0,1,98.93,28.48Z"/><path class="j" d="M104.06,40.87l-.88-.8a9.31,9.31,0,0,0,1.62-5.48V26.78H114V39.3a1.21,1.21,0,0,1-1.36,1.37h-2.07l-.32-1.13c.74,0,1.41.06,2,.06.37,0,.56-.24.56-.7V35.71h-6.9A9.77,9.77,0,0,1,104.06,40.87Zm8.74-13H106v2.81h6.83ZM106,34.64h6.83V31.76H106Z"/><path class="j" d="M124.53,28.48a3.11,3.11,0,0,1,1,2.41,3.86,3.86,0,0,1-1.12,2.69,15.57,15.57,0,0,1-2.37,1.84c-1.46,1-2.29,1.86-2.5,2.63h6v1.17H118a4.15,4.15,0,0,1,1.13-2.84,14.19,14.19,0,0,1,2.48-2,14.65,14.65,0,0,0,1.8-1.42,3,3,0,0,0,.88-2.05,2.07,2.07,0,0,0-.63-1.62,2.48,2.48,0,0,0-1.74-.57,2.13,2.13,0,0,0-1.81.8,3.43,3.43,0,0,0-.7,2.28H118a4.27,4.27,0,0,1,1.08-3.05,3.61,3.61,0,0,1,2.8-1.16A3.8,3.8,0,0,1,124.53,28.48Z"/><path class="j" d="M135.17,30.62h-1.3a2.17,2.17,0,0,0-2.37-1.95A2.32,2.32,0,0,0,129.39,30a6,6,0,0,0-.75,3.2c0,.06,0,.21,0,.42h.07A3,3,0,0,1,130,32.24a3.11,3.11,0,0,1,1.77-.5,3.5,3.5,0,0,1,2.65,1.06,4.18,4.18,0,0,1-.1,5.52,3.75,3.75,0,0,1-2.77,1.12,3.59,3.59,0,0,1-3.14-1.55,7.16,7.16,0,0,1-1-4.08,8.19,8.19,0,0,1,1.07-4.45,3.48,3.48,0,0,1,3.08-1.8A3.29,3.29,0,0,1,135.17,30.62Zm-5.57,3a2.65,2.65,0,0,0-.74,1.95,2.75,2.75,0,0,0,.7,2,2.43,2.43,0,0,0,1.91.82,2.47,2.47,0,0,0,1.87-.79,2.93,2.93,0,0,0,.72-2,2.68,2.68,0,0,0-.7-1.94,2.46,2.46,0,0,0-1.89-.75A2.5,2.5,0,0,0,129.6,33.6Z"/><path class="j" d="M149.26,40.74h-1.17V39.52h-7.57v1.23h-1.15v-14h9.89Zm-1.17-8.28V27.9h-7.57v4.56Zm0,5.94V33.58h-7.57V38.4Z"/><path class="j" d="M155.13,33.89a21.62,21.62,0,0,1-.24,2.61,5.68,5.68,0,0,0,1.67,2V32.73h-3.29v-1h2.93V29.33h-2.64V28.27h2.64V26.11h1.16v2.16h2.56v1.06h-2.56v2.35h2.77v1h-2.47V35h2.27v1.06h-2.27v3a27.14,27.14,0,0,0,5.89.41c1.78,0,3.11,0,4-.08l-.19,1.12h-3.52c-3.75,0-6.1-.22-7-.65a5.19,5.19,0,0,1-2.14-2,16.76,16.76,0,0,1-1,3l-.88-.79a17.21,17.21,0,0,0,1.33-6.27Zm11.53,3.42a1.63,1.63,0,0,1-1.49.59h-2.85A1.21,1.21,0,0,1,161,36.53v-5.2h4.35V28.24h-4.62V27.16h5.74v5.27h-4.32v3.68a.6.6,0,0,0,.67.67H165a.88.88,0,0,0,.9-.51,8.27,8.27,0,0,0,.25-1.85l1.09.36A6.24,6.24,0,0,1,166.66,37.31Z"/></svg>